%TF.GenerationSoftware,KiCad,Pcbnew,9.0.6*%
%TF.CreationDate,2026-01-16T11:33:12+01:00*%
%TF.ProjectId,PhatBoy_kicad_mark2025,50686174-426f-4795-9f6b-696361645f6d,rev?*%
%TF.SameCoordinates,Original*%
%TF.FileFunction,Soldermask,Top*%
%TF.FilePolarity,Negative*%
%FSLAX46Y46*%
G04 Gerber Fmt 4.6, Leading zero omitted, Abs format (unit mm)*
G04 Created by KiCad (PCBNEW 9.0.6) date 2026-01-16 11:33:12*
%MOMM*%
%LPD*%
G01*
G04 APERTURE LIST*
G04 Aperture macros list*
%AMRoundRect*
0 Rectangle with rounded corners*
0 $1 Rounding radius*
0 $2 $3 $4 $5 $6 $7 $8 $9 X,Y pos of 4 corners*
0 Add a 4 corners polygon primitive as box body*
4,1,4,$2,$3,$4,$5,$6,$7,$8,$9,$2,$3,0*
0 Add four circle primitives for the rounded corners*
1,1,$1+$1,$2,$3*
1,1,$1+$1,$4,$5*
1,1,$1+$1,$6,$7*
1,1,$1+$1,$8,$9*
0 Add four rect primitives between the rounded corners*
20,1,$1+$1,$2,$3,$4,$5,0*
20,1,$1+$1,$4,$5,$6,$7,0*
20,1,$1+$1,$6,$7,$8,$9,0*
20,1,$1+$1,$8,$9,$2,$3,0*%
G04 Aperture macros list end*
%ADD10RoundRect,0.225000X-0.225000X-0.250000X0.225000X-0.250000X0.225000X0.250000X-0.225000X0.250000X0*%
%ADD11RoundRect,0.250000X0.625000X-0.375000X0.625000X0.375000X-0.625000X0.375000X-0.625000X-0.375000X0*%
%ADD12RoundRect,0.200000X0.200000X0.275000X-0.200000X0.275000X-0.200000X-0.275000X0.200000X-0.275000X0*%
%ADD13RoundRect,0.250000X-0.650000X0.325000X-0.650000X-0.325000X0.650000X-0.325000X0.650000X0.325000X0*%
%ADD14RoundRect,0.162500X-0.447500X-0.162500X0.447500X-0.162500X0.447500X0.162500X-0.447500X0.162500X0*%
%ADD15RoundRect,0.250000X-0.325000X-0.650000X0.325000X-0.650000X0.325000X0.650000X-0.325000X0.650000X0*%
%ADD16R,0.279400X0.900000*%
%ADD17R,4.000000X0.800000*%
%ADD18RoundRect,0.162500X0.162500X-0.447500X0.162500X0.447500X-0.162500X0.447500X-0.162500X-0.447500X0*%
%ADD19RoundRect,0.225000X0.250000X-0.225000X0.250000X0.225000X-0.250000X0.225000X-0.250000X-0.225000X0*%
%ADD20RoundRect,0.625000X-1.375000X0.625000X-1.375000X-0.625000X1.375000X-0.625000X1.375000X0.625000X0*%
%ADD21RoundRect,0.250000X-2.250000X0.250000X-2.250000X-0.250000X2.250000X-0.250000X2.250000X0.250000X0*%
%ADD22C,5.600000*%
%ADD23RoundRect,0.375000X0.625000X0.375000X-0.625000X0.375000X-0.625000X-0.375000X0.625000X-0.375000X0*%
%ADD24RoundRect,0.500000X0.500000X1.400000X-0.500000X1.400000X-0.500000X-1.400000X0.500000X-1.400000X0*%
%ADD25O,1.700000X2.400000*%
%ADD26RoundRect,0.250000X-0.600000X0.950000X-0.600000X-0.950000X0.600000X-0.950000X0.600000X0.950000X0*%
%ADD27RoundRect,0.245000X-0.980000X2.055000X-0.980000X-2.055000X0.980000X-2.055000X0.980000X2.055000X0*%
%ADD28RoundRect,0.200000X-0.275000X0.200000X-0.275000X-0.200000X0.275000X-0.200000X0.275000X0.200000X0*%
%ADD29R,2.200000X1.500000*%
%ADD30RoundRect,0.200000X-0.200000X-0.275000X0.200000X-0.275000X0.200000X0.275000X-0.200000X0.275000X0*%
%ADD31O,2.400000X1.800000*%
%ADD32RoundRect,0.250000X0.950000X-0.650000X0.950000X0.650000X-0.950000X0.650000X-0.950000X-0.650000X0*%
%ADD33O,2.400000X1.700000*%
%ADD34RoundRect,0.250000X-0.950000X-0.600000X0.950000X-0.600000X0.950000X0.600000X-0.950000X0.600000X0*%
%ADD35R,0.600000X2.100000*%
%ADD36R,0.450000X1.500000*%
%ADD37R,1.500000X0.450000*%
%ADD38RoundRect,0.250000X0.600000X-0.950000X0.600000X0.950000X-0.600000X0.950000X-0.600000X-0.950000X0*%
%ADD39R,1.700000X2.400000*%
G04 APERTURE END LIST*
D10*
%TO.C,R3*%
X59220000Y-87000000D03*
X60770000Y-87000000D03*
%TD*%
D11*
%TO.C,D2*%
X66430000Y-102640000D03*
X66430000Y-99840000D03*
%TD*%
D12*
%TO.C,R11*%
X92341176Y-89505686D03*
X90691176Y-89505686D03*
%TD*%
D10*
%TO.C,R9*%
X61020000Y-82230000D03*
X62570000Y-82230000D03*
%TD*%
D13*
%TO.C,C8*%
X75480000Y-92300000D03*
X75480000Y-95250000D03*
%TD*%
D10*
%TO.C,C16*%
X71985000Y-90885000D03*
X73535000Y-90885000D03*
%TD*%
D14*
%TO.C,Q1*%
X63870000Y-80330000D03*
X63870000Y-82230000D03*
X66490000Y-81280000D03*
%TD*%
D15*
%TO.C,C5*%
X53575000Y-70820000D03*
X56525000Y-70820000D03*
%TD*%
D16*
%TO.C,U4*%
X70589680Y-87705980D03*
X70089300Y-87705980D03*
X69588920Y-87705980D03*
X69091080Y-87705980D03*
X68590700Y-87705980D03*
D17*
X69340000Y-88855000D03*
D16*
X68090320Y-87705980D03*
X68090320Y-90004020D03*
X68590700Y-90004020D03*
X69091080Y-90004020D03*
X69588920Y-90004020D03*
X70089300Y-90004020D03*
X70589680Y-90004020D03*
%TD*%
D15*
%TO.C,C14*%
X57005000Y-103952233D03*
X59955000Y-103952233D03*
%TD*%
D18*
%TO.C,Q2*%
X47090000Y-80470000D03*
X48990000Y-80470000D03*
X48040000Y-77850000D03*
%TD*%
D19*
%TO.C,C2*%
X89325000Y-85125000D03*
X89325000Y-83575000D03*
%TD*%
D20*
%TO.C,J13*%
X78510000Y-68960000D03*
X78510000Y-80960000D03*
D21*
X75960000Y-71960000D03*
X75960000Y-73960000D03*
X75960000Y-75960000D03*
X75960000Y-77960000D03*
%TD*%
D20*
%TO.C,J2*%
X70480000Y-68970000D03*
X70480000Y-80970000D03*
D21*
X67930000Y-71970000D03*
X67930000Y-73970000D03*
X67930000Y-75970000D03*
X67930000Y-77970000D03*
%TD*%
D22*
%TO.C,H1*%
X85000000Y-80000000D03*
%TD*%
%TO.C,H4*%
X40000000Y-95000000D03*
%TD*%
D23*
%TO.C,U3*%
X86390000Y-89740000D03*
X86390000Y-87440000D03*
D24*
X80090000Y-87440000D03*
D23*
X86390000Y-85140000D03*
%TD*%
D25*
%TO.C,J11*%
X102650000Y-87525000D03*
D26*
X100110000Y-87525000D03*
%TD*%
D15*
%TO.C,C13*%
X81525000Y-94580000D03*
X84475000Y-94580000D03*
%TD*%
%TO.C,C6*%
X37595000Y-70630000D03*
X40545000Y-70630000D03*
%TD*%
D18*
%TO.C,S2*%
X90685412Y-87804984D03*
X92585412Y-87804984D03*
X91635412Y-85184984D03*
%TD*%
D22*
%TO.C,H3*%
X100000000Y-80000000D03*
%TD*%
D27*
%TO.C,C1*%
X90925000Y-93780000D03*
X90925000Y-102380000D03*
%TD*%
D28*
%TO.C,R6*%
X66430000Y-96570000D03*
X66430000Y-98220000D03*
%TD*%
D19*
%TO.C,C15*%
X73550000Y-89490000D03*
X73550000Y-87940000D03*
%TD*%
%TO.C,R1*%
X61800000Y-85315000D03*
X61800000Y-83765000D03*
%TD*%
D29*
%TO.C,SW1*%
X80690000Y-104730000D03*
X70690000Y-104730000D03*
X80690000Y-100230000D03*
X70690000Y-100230000D03*
%TD*%
D30*
%TO.C,R5*%
X81370000Y-97480000D03*
X83020000Y-97480000D03*
%TD*%
D31*
%TO.C,U5*%
X45699489Y-104807024D03*
D32*
X45699489Y-102267024D03*
D31*
X45699489Y-99727024D03*
%TD*%
D28*
%TO.C,R2*%
X70610000Y-91900000D03*
X70610000Y-93550000D03*
%TD*%
D11*
%TO.C,D1*%
X78740000Y-97490000D03*
X78740000Y-94690000D03*
%TD*%
D30*
%TO.C,R8*%
X46500432Y-93087835D03*
X48150432Y-93087835D03*
%TD*%
D10*
%TO.C,R4*%
X47325000Y-82470000D03*
X48875000Y-82470000D03*
%TD*%
D33*
%TO.C,J7*%
X50393285Y-94002276D03*
X50393285Y-96542276D03*
X50393285Y-99082276D03*
D34*
X50393285Y-101622276D03*
%TD*%
D35*
%TO.C,Y1*%
X61595000Y-100750000D03*
X62795000Y-100750000D03*
X63995000Y-100750000D03*
%TD*%
D15*
%TO.C,C3*%
X81525000Y-92240000D03*
X84475000Y-92240000D03*
%TD*%
D14*
%TO.C,S1*%
X94290000Y-85932500D03*
X94290000Y-87832500D03*
X96910000Y-86882500D03*
%TD*%
D36*
%TO.C,U1*%
X56770000Y-98190000D03*
X57570000Y-98190000D03*
X58370000Y-98190000D03*
X59170000Y-98190000D03*
X59970000Y-98190000D03*
X60770000Y-98190000D03*
X61570000Y-98190000D03*
X62370000Y-98190000D03*
D37*
X64170000Y-96390000D03*
X64170000Y-95590000D03*
X64170000Y-94790000D03*
X64170000Y-93990000D03*
X64170000Y-93190000D03*
X64170000Y-92390000D03*
X64170000Y-91590000D03*
X64170000Y-90790000D03*
D36*
X62370000Y-88990000D03*
X61570000Y-88990000D03*
X60770000Y-88990000D03*
X59970000Y-88990000D03*
X59170000Y-88990000D03*
X58370000Y-88990000D03*
X57570000Y-88990000D03*
X56770000Y-88990000D03*
D37*
X54970000Y-90790000D03*
X54970000Y-91590000D03*
X54970000Y-92390000D03*
X54970000Y-93190000D03*
X54970000Y-93990000D03*
X54970000Y-94790000D03*
X54970000Y-95590000D03*
X54970000Y-96390000D03*
%TD*%
D15*
%TO.C,C4*%
X57005000Y-101672233D03*
X59955000Y-101672233D03*
%TD*%
D22*
%TO.C,H2*%
X55000000Y-80000000D03*
%TD*%
D25*
%TO.C,J6*%
X61250000Y-73725000D03*
X58710000Y-73725000D03*
D38*
X56170000Y-73725000D03*
D25*
X53630000Y-73725000D03*
%TD*%
%TO.C,J12*%
X94375000Y-90075000D03*
D26*
X96915000Y-90075000D03*
%TD*%
D25*
%TO.C,J1*%
X47737206Y-73544687D03*
X45197206Y-73544687D03*
X42657206Y-73544687D03*
D38*
X40117206Y-73544687D03*
D25*
X37577206Y-73544687D03*
%TD*%
%TO.C,J3*%
X74350000Y-84690000D03*
X71810000Y-84690000D03*
%TD*%
%TO.C,J4*%
X68240000Y-84690000D03*
X65700000Y-84690000D03*
%TD*%
%TO.C,J8*%
X70430000Y-97485000D03*
X72970000Y-97485000D03*
D39*
X75510000Y-97485000D03*
%TD*%
M02*
