M48
; DRILL file {KiCad 9.0.6} date 2026-01-16T11:33:12+0100
; FORMAT={-:-/ absolute / inch / decimal}
; #@! TF.CreationDate,2026-01-16T11:33:12+01:00
; #@! TF.GenerationSoftware,Kicad,Pcbnew,9.0.6
; #@! TF.FileFunction,Plated,1,2,PTH
FMAT,2
INCH
; #@! TA.AperFunction,Plated,PTH,ViaDrill
T1C0.0236
; #@! TA.AperFunction,Plated,PTH,ComponentDrill
T2C0.0354
; #@! TA.AperFunction,Plated,PTH,ComponentDrill
T3C0.0394
%
G90
G05
T1
X1.8713Y-3.3453
X1.9437Y-3.3185
X2.2891Y-3.5903
X2.3295Y-3.6831
X2.4585Y-3.4111
X2.4965Y-3.3161
X2.5146Y-3.5148
X2.5339Y-3.8539
X2.5624Y-4.1236
X2.6164Y-3.4879
X2.8411Y-3.6364
X3.7177Y-4.1224
T2
X1.7992Y-3.9263
X1.7992Y-4.0263
X1.7992Y-4.1263
T3
X1.4794Y-2.8955
X1.5794Y-2.8955
X1.6794Y-2.8955
X1.7794Y-2.8955
X1.8794Y-2.8955
X1.984Y-3.7009
X1.984Y-3.8009
X1.984Y-3.9009
X1.984Y-4.0009
X2.1114Y-2.9026
X2.2114Y-2.9026
X2.3114Y-2.9026
X2.4114Y-2.9026
X2.5866Y-3.3343
X2.6866Y-3.3343
X2.7728Y-3.838
X2.8272Y-3.3343
X2.8728Y-3.838
X2.9272Y-3.3343
X2.9728Y-3.838
X3.7156Y-3.5463
X3.8156Y-3.5463
X3.9413Y-3.4459
X4.0413Y-3.4459
M30
