%TF.GenerationSoftware,KiCad,Pcbnew,9.0.6*%
%TF.CreationDate,2026-01-16T11:33:12+01:00*%
%TF.ProjectId,PhatBoy_kicad_mark2025,50686174-426f-4795-9f6b-696361645f6d,rev?*%
%TF.SameCoordinates,Original*%
%TF.FileFunction,Copper,L2,Bot*%
%TF.FilePolarity,Positive*%
%FSLAX46Y46*%
G04 Gerber Fmt 4.6, Leading zero omitted, Abs format (unit mm)*
G04 Created by KiCad (PCBNEW 9.0.6) date 2026-01-16 11:33:12*
%MOMM*%
%LPD*%
G01*
G04 APERTURE LIST*
G04 Aperture macros list*
%AMRoundRect*
0 Rectangle with rounded corners*
0 $1 Rounding radius*
0 $2 $3 $4 $5 $6 $7 $8 $9 X,Y pos of 4 corners*
0 Add a 4 corners polygon primitive as box body*
4,1,4,$2,$3,$4,$5,$6,$7,$8,$9,$2,$3,0*
0 Add four circle primitives for the rounded corners*
1,1,$1+$1,$2,$3*
1,1,$1+$1,$4,$5*
1,1,$1+$1,$6,$7*
1,1,$1+$1,$8,$9*
0 Add four rect primitives between the rounded corners*
20,1,$1+$1,$2,$3,$4,$5,0*
20,1,$1+$1,$4,$5,$6,$7,0*
20,1,$1+$1,$6,$7,$8,$9,0*
20,1,$1+$1,$8,$9,$2,$3,0*%
G04 Aperture macros list end*
%TA.AperFunction,WasherPad*%
%ADD10C,5.600000*%
%TD*%
%TA.AperFunction,ComponentPad*%
%ADD11O,1.700000X2.400000*%
%TD*%
%TA.AperFunction,ComponentPad*%
%ADD12RoundRect,0.250000X-0.600000X0.950000X-0.600000X-0.950000X0.600000X-0.950000X0.600000X0.950000X0*%
%TD*%
%TA.AperFunction,ComponentPad*%
%ADD13O,2.400000X1.800000*%
%TD*%
%TA.AperFunction,ComponentPad*%
%ADD14RoundRect,0.250000X0.950000X-0.650000X0.950000X0.650000X-0.950000X0.650000X-0.950000X-0.650000X0*%
%TD*%
%TA.AperFunction,ComponentPad*%
%ADD15O,2.400000X1.700000*%
%TD*%
%TA.AperFunction,ComponentPad*%
%ADD16RoundRect,0.250000X-0.950000X-0.600000X0.950000X-0.600000X0.950000X0.600000X-0.950000X0.600000X0*%
%TD*%
%TA.AperFunction,ComponentPad*%
%ADD17RoundRect,0.250000X0.600000X-0.950000X0.600000X0.950000X-0.600000X0.950000X-0.600000X-0.950000X0*%
%TD*%
%TA.AperFunction,ComponentPad*%
%ADD18R,1.700000X2.400000*%
%TD*%
%TA.AperFunction,ViaPad*%
%ADD19C,1.200000*%
%TD*%
%TA.AperFunction,Conductor*%
%ADD20C,1.000000*%
%TD*%
%TA.AperFunction,Conductor*%
%ADD21C,1.500000*%
%TD*%
%TA.AperFunction,Conductor*%
%ADD22C,0.800000*%
%TD*%
G04 APERTURE END LIST*
D10*
%TO.P,H1,*%
%TO.N,*%
X85000000Y-80000000D03*
%TD*%
%TO.P,H4,*%
%TO.N,*%
X40000000Y-95000000D03*
%TD*%
D11*
%TO.P,J11,1,Pin_1*%
%TO.N,Net-(J11-Pin_1)*%
X102650000Y-87525000D03*
D12*
%TO.P,J11,2,Pin_2*%
%TO.N,GND*%
X100110000Y-87525000D03*
%TD*%
D10*
%TO.P,H3,*%
%TO.N,*%
X100000000Y-80000000D03*
%TD*%
D13*
%TO.P,U5,1,OUT*%
%TO.N,/REMOTE*%
X45699489Y-104807024D03*
D14*
%TO.P,U5,2,GND*%
%TO.N,GND*%
X45699489Y-102267024D03*
D13*
%TO.P,U5,3,Vs*%
%TO.N,+5V*%
X45699489Y-99727024D03*
%TD*%
D15*
%TO.P,J7,1,Pin_1*%
%TO.N,/RXD*%
X50393285Y-94002276D03*
%TO.P,J7,2,Pin_2*%
%TO.N,/TXD*%
X50393285Y-96542276D03*
%TO.P,J7,3,Pin_3*%
%TO.N,/RST*%
X50393285Y-99082276D03*
D16*
%TO.P,J7,4,Pin_4*%
%TO.N,GND*%
X50393285Y-101622276D03*
%TD*%
D10*
%TO.P,H2,*%
%TO.N,*%
X55000000Y-80000000D03*
%TD*%
D11*
%TO.P,J6,1,Pin_1*%
%TO.N,SCL*%
X61250000Y-73725000D03*
%TO.P,J6,2,Pin_2*%
%TO.N,SDA*%
X58710000Y-73725000D03*
D17*
%TO.P,J6,3,Pin_3*%
%TO.N,GND*%
X56170000Y-73725000D03*
D11*
%TO.P,J6,4,Pin_4*%
%TO.N,+5V*%
X53630000Y-73725000D03*
%TD*%
%TO.P,J12,1,Pin_1*%
%TO.N,Net-(J12-Pin_1)*%
X94375000Y-90075000D03*
D12*
%TO.P,J12,2,Pin_2*%
%TO.N,GND*%
X96915000Y-90075000D03*
%TD*%
D11*
%TO.P,J1,1,Pin_1*%
%TO.N,Net-(J1-Pin_1)*%
X47737206Y-73544687D03*
%TO.P,J1,2,Pin_2*%
%TO.N,SCL*%
X45197206Y-73544687D03*
%TO.P,J1,3,Pin_3*%
%TO.N,SDA*%
X42657206Y-73544687D03*
D17*
%TO.P,J1,4,Pin_4*%
%TO.N,GND*%
X40117206Y-73544687D03*
D11*
%TO.P,J1,5,Pin_5*%
%TO.N,+5V*%
X37577206Y-73544687D03*
%TD*%
%TO.P,J3,1,Pin_1*%
%TO.N,Net-(J3-Pin_1)*%
X74350000Y-84690000D03*
%TO.P,J3,2,Pin_2*%
%TO.N,Net-(J3-Pin_2)*%
X71810000Y-84690000D03*
%TD*%
%TO.P,J4,1,Pin_1*%
%TO.N,Net-(J4-Pin_1)*%
X68240000Y-84690000D03*
%TO.P,J4,2,Pin_2*%
%TO.N,Net-(J4-Pin_2)*%
X65700000Y-84690000D03*
%TD*%
%TO.P,J8,1,Pin_1*%
%TO.N,/SERVO_G*%
X70430000Y-97485000D03*
%TO.P,J8,2,Pin_2*%
%TO.N,+5V*%
X72970000Y-97485000D03*
D18*
%TO.P,J8,3,Pin_3*%
%TO.N,GND*%
X75510000Y-97485000D03*
%TD*%
D19*
%TO.N,GND*%
X49370000Y-84290000D03*
X65085000Y-104740000D03*
X94430000Y-104710000D03*
X66457178Y-88593674D03*
X63410000Y-84230000D03*
X59170000Y-93550000D03*
%TO.N,+5V*%
X62445000Y-86642063D03*
X72165000Y-92365000D03*
%TO.N,/BIN1*%
X63870000Y-89275000D03*
X58142737Y-91193775D03*
%TO.N,SHUT*%
X64360000Y-97890000D03*
X47530000Y-84970000D03*
%TD*%
D20*
%TO.N,GND*%
X63460000Y-93550000D02*
X59170000Y-93550000D01*
D21*
X61840000Y-68860000D02*
X65410000Y-72430000D01*
X65085000Y-104740000D02*
X61967276Y-101622276D01*
X96915000Y-91935000D02*
X96915000Y-90075000D01*
D20*
X49370000Y-84670000D02*
X58250000Y-93550000D01*
X45776513Y-102190000D02*
X47810000Y-102190000D01*
D21*
X77890000Y-82470000D02*
X74630000Y-79210000D01*
X40117206Y-73544687D02*
X40117206Y-72442794D01*
X73437724Y-101622276D02*
X75510000Y-99550000D01*
X40117206Y-72442794D02*
X43700000Y-68860000D01*
D20*
X43637024Y-102267024D02*
X45699489Y-102267024D01*
D21*
X77890000Y-86600000D02*
X77890000Y-82470000D01*
D20*
X40117206Y-73544687D02*
X40117206Y-81767206D01*
D21*
X61967276Y-101622276D02*
X73437724Y-101622276D01*
D20*
X66165000Y-88885852D02*
X66165000Y-90845000D01*
X44050000Y-85700000D02*
X44050000Y-97810000D01*
X44050000Y-97810000D02*
X43022930Y-98837070D01*
X56080000Y-73880000D02*
X56080000Y-73562645D01*
X47810000Y-102190000D02*
X48390000Y-101610000D01*
D21*
X66165000Y-89705000D02*
X70970000Y-94510000D01*
D20*
X49840000Y-101610000D02*
X49852276Y-101622276D01*
X48390000Y-101610000D02*
X49840000Y-101610000D01*
D21*
X65410000Y-79210000D02*
X63410000Y-81210000D01*
X75510000Y-95640000D02*
X74380000Y-94510000D01*
X74630000Y-79210000D02*
X65410000Y-79210000D01*
X91365000Y-97485000D02*
X96915000Y-91935000D01*
D20*
X63410000Y-81210000D02*
X56080000Y-73880000D01*
X66165000Y-90845000D02*
X63460000Y-93550000D01*
D21*
X66457178Y-88593674D02*
X66165000Y-88885852D01*
D20*
X45699489Y-102267024D02*
X45776513Y-102190000D01*
D21*
X75510000Y-99550000D02*
X75510000Y-97485000D01*
X74380000Y-90110000D02*
X77890000Y-86600000D01*
X65410000Y-72430000D02*
X65410000Y-79210000D01*
X75510000Y-97485000D02*
X75510000Y-95640000D01*
X99305000Y-90075000D02*
X100110000Y-89270000D01*
D20*
X58250000Y-93550000D02*
X59170000Y-93550000D01*
X43022930Y-98837070D02*
X43022930Y-101652930D01*
D21*
X66165000Y-88885852D02*
X66165000Y-89705000D01*
X43700000Y-68860000D02*
X61840000Y-68860000D01*
D20*
X49370000Y-84290000D02*
X49370000Y-84670000D01*
X43022930Y-101652930D02*
X43637024Y-102267024D01*
D21*
X74380000Y-94510000D02*
X74380000Y-90110000D01*
X61967276Y-101622276D02*
X50393285Y-101622276D01*
X75510000Y-97485000D02*
X91365000Y-97485000D01*
X100110000Y-89270000D02*
X100110000Y-87525000D01*
D20*
X49852276Y-101622276D02*
X50393285Y-101622276D01*
X40117206Y-81767206D02*
X44050000Y-85700000D01*
D21*
X70970000Y-94510000D02*
X74380000Y-94510000D01*
D20*
X63410000Y-84230000D02*
X63410000Y-81210000D01*
D21*
X96915000Y-90075000D02*
X99305000Y-90075000D01*
D22*
%TO.N,+5V*%
X60880000Y-80590000D02*
X56340000Y-76050000D01*
D20*
X67940000Y-87060000D02*
X72165000Y-91285000D01*
X63850000Y-87060000D02*
X67940000Y-87060000D01*
X46960000Y-91710000D02*
X51923959Y-91710000D01*
D22*
X54230000Y-76050000D02*
X53540000Y-75360000D01*
D20*
X72100000Y-99830000D02*
X72970000Y-98960000D01*
X62462937Y-86660000D02*
X63450000Y-86660000D01*
X62445000Y-86642063D02*
X62462937Y-86660000D01*
X45688745Y-98994350D02*
X45688745Y-92981255D01*
X72165000Y-91285000D02*
X72165000Y-92365000D01*
D22*
X60880000Y-85077063D02*
X60880000Y-80590000D01*
D20*
X63450000Y-86660000D02*
X63850000Y-87060000D01*
X72970000Y-98960000D02*
X72970000Y-97485000D01*
X45688745Y-92981255D02*
X46960000Y-91710000D01*
X45699489Y-99005094D02*
X45688745Y-98994350D01*
X51923959Y-91710000D02*
X60043959Y-99830000D01*
D22*
X62445000Y-86642063D02*
X60880000Y-85077063D01*
X53540000Y-75360000D02*
X53540000Y-73562645D01*
X56340000Y-76050000D02*
X54230000Y-76050000D01*
D20*
X60043959Y-99830000D02*
X72100000Y-99830000D01*
X45699489Y-99727024D02*
X45699489Y-99005094D01*
D22*
X62445000Y-86642063D02*
X61752937Y-85950000D01*
D20*
%TO.N,/BIN1*%
X58142737Y-91193775D02*
X59226225Y-91193775D01*
X61145000Y-89275000D02*
X63870000Y-89275000D01*
X59226225Y-91193775D02*
X61145000Y-89275000D01*
D22*
%TO.N,SHUT*%
X47530000Y-84970000D02*
X60450000Y-97890000D01*
X60450000Y-97890000D02*
X64360000Y-97890000D01*
D20*
%TO.N,SCL*%
X46220000Y-70990000D02*
X45197206Y-72012794D01*
X61160000Y-72180000D02*
X59970000Y-70990000D01*
X45197206Y-72012794D02*
X45197206Y-73544687D01*
X61160000Y-73562645D02*
X61160000Y-72180000D01*
X59970000Y-70990000D02*
X46220000Y-70990000D01*
%TD*%
%TA.AperFunction,Conductor*%
%TO.N,GND*%
G36*
X104442539Y-67520185D02*
G01*
X104488294Y-67572989D01*
X104499500Y-67624500D01*
X104499500Y-105875500D01*
X104479815Y-105942539D01*
X104427011Y-105988294D01*
X104375500Y-105999500D01*
X47086982Y-105999500D01*
X47019943Y-105979815D01*
X46974188Y-105927011D01*
X46964244Y-105857853D01*
X46993269Y-105794297D01*
X46999301Y-105787819D01*
X47067731Y-105719389D01*
X47197304Y-105541046D01*
X47297384Y-105344630D01*
X47365504Y-105134975D01*
X47399989Y-104917246D01*
X47399989Y-104696802D01*
X47365504Y-104479073D01*
X47297384Y-104269418D01*
X47297384Y-104269417D01*
X47262726Y-104201399D01*
X47197304Y-104073002D01*
X47180749Y-104050216D01*
X47067736Y-103894665D01*
X47067732Y-103894660D01*
X46911852Y-103738780D01*
X46911847Y-103738776D01*
X46733514Y-103609211D01*
X46733513Y-103609210D01*
X46733511Y-103609209D01*
X46670585Y-103577146D01*
X46537095Y-103509128D01*
X46537092Y-103509127D01*
X46327441Y-103441009D01*
X46218575Y-103423766D01*
X46109711Y-103406524D01*
X45289267Y-103406524D01*
X45216690Y-103418019D01*
X45071536Y-103441009D01*
X44861885Y-103509127D01*
X44861882Y-103509128D01*
X44665463Y-103609211D01*
X44487130Y-103738776D01*
X44487125Y-103738780D01*
X44331245Y-103894660D01*
X44331241Y-103894665D01*
X44201676Y-104072998D01*
X44101593Y-104269417D01*
X44101592Y-104269420D01*
X44033474Y-104479071D01*
X43998989Y-104696802D01*
X43998989Y-104917245D01*
X44033474Y-105134976D01*
X44101592Y-105344627D01*
X44101593Y-105344630D01*
X44201676Y-105541049D01*
X44331241Y-105719382D01*
X44331245Y-105719387D01*
X44399677Y-105787819D01*
X44433162Y-105849142D01*
X44428178Y-105918834D01*
X44386306Y-105974767D01*
X44320842Y-105999184D01*
X44311996Y-105999500D01*
X36624500Y-105999500D01*
X36557461Y-105979815D01*
X36511706Y-105927011D01*
X36500500Y-105875500D01*
X36500500Y-99616802D01*
X43998989Y-99616802D01*
X43998989Y-99837245D01*
X44033474Y-100054976D01*
X44101592Y-100264627D01*
X44101593Y-100264630D01*
X44201676Y-100461049D01*
X44331241Y-100639382D01*
X44331245Y-100639387D01*
X44487125Y-100795267D01*
X44487130Y-100795271D01*
X44589406Y-100869578D01*
X44665467Y-100924839D01*
X44793864Y-100990261D01*
X44861882Y-101024919D01*
X44861885Y-101024920D01*
X44966710Y-101058979D01*
X45071538Y-101093039D01*
X45289267Y-101127524D01*
X45289268Y-101127524D01*
X46109710Y-101127524D01*
X46109711Y-101127524D01*
X46327440Y-101093039D01*
X46537095Y-101024919D01*
X46733511Y-100924839D01*
X46911854Y-100795266D01*
X47067731Y-100639389D01*
X47197304Y-100461046D01*
X47297384Y-100264630D01*
X47365504Y-100054975D01*
X47399989Y-99837246D01*
X47399989Y-99616802D01*
X47365504Y-99399073D01*
X47297384Y-99189418D01*
X47297384Y-99189417D01*
X47262726Y-99121399D01*
X47197304Y-98993002D01*
X47087331Y-98841636D01*
X47067736Y-98814665D01*
X47067732Y-98814660D01*
X46911852Y-98658780D01*
X46911847Y-98658776D01*
X46740360Y-98534184D01*
X46697694Y-98478854D01*
X46689245Y-98433866D01*
X46689245Y-93447037D01*
X46708930Y-93379998D01*
X46725564Y-93359356D01*
X47338101Y-92746819D01*
X47399424Y-92713334D01*
X47425782Y-92710500D01*
X49142020Y-92710500D01*
X49209059Y-92730185D01*
X49254814Y-92782989D01*
X49264758Y-92852147D01*
X49235733Y-92915703D01*
X49214905Y-92934818D01*
X49163499Y-92972166D01*
X49163494Y-92972170D01*
X49013175Y-93122489D01*
X48888236Y-93294455D01*
X48791729Y-93483861D01*
X48726038Y-93686036D01*
X48692785Y-93895989D01*
X48692785Y-94108562D01*
X48706807Y-94197097D01*
X48726039Y-94318519D01*
X48789920Y-94515125D01*
X48791729Y-94520690D01*
X48888236Y-94710096D01*
X49013175Y-94882062D01*
X49163498Y-95032385D01*
X49335467Y-95157326D01*
X49344231Y-95161792D01*
X49395027Y-95209767D01*
X49411821Y-95277588D01*
X49389283Y-95343723D01*
X49344231Y-95382760D01*
X49335467Y-95387225D01*
X49163498Y-95512166D01*
X49013175Y-95662489D01*
X48888236Y-95834455D01*
X48791729Y-96023861D01*
X48726038Y-96226036D01*
X48721479Y-96254821D01*
X48692785Y-96435989D01*
X48692785Y-96648563D01*
X48700749Y-96698848D01*
X48719741Y-96818760D01*
X48726039Y-96858519D01*
X48788446Y-97050588D01*
X48791729Y-97060690D01*
X48888236Y-97250096D01*
X49013175Y-97422062D01*
X49163498Y-97572385D01*
X49335467Y-97697326D01*
X49344231Y-97701792D01*
X49395027Y-97749767D01*
X49411821Y-97817588D01*
X49389283Y-97883723D01*
X49344231Y-97922760D01*
X49335467Y-97927225D01*
X49163498Y-98052166D01*
X49013175Y-98202489D01*
X48888236Y-98374455D01*
X48791729Y-98563861D01*
X48726038Y-98766036D01*
X48700529Y-98927093D01*
X48692785Y-98975989D01*
X48692785Y-99188563D01*
X48692921Y-99189420D01*
X48709948Y-99296929D01*
X48726039Y-99398519D01*
X48726218Y-99399071D01*
X48791729Y-99600690D01*
X48888236Y-99790096D01*
X49013175Y-99962062D01*
X49013181Y-99962068D01*
X49163493Y-100112380D01*
X49163494Y-100112381D01*
X49163493Y-100112381D01*
X49168883Y-100116296D01*
X49211552Y-100171624D01*
X49217534Y-100241237D01*
X49184932Y-100303034D01*
X49135014Y-100334322D01*
X49124166Y-100337917D01*
X49124160Y-100337919D01*
X48974939Y-100429960D01*
X48850969Y-100553930D01*
X48758928Y-100703151D01*
X48758926Y-100703156D01*
X48703779Y-100869578D01*
X48703778Y-100869585D01*
X48693285Y-100972289D01*
X48693285Y-101372276D01*
X49960273Y-101372276D01*
X49927360Y-101429283D01*
X49893285Y-101556450D01*
X49893285Y-101688102D01*
X49927360Y-101815269D01*
X49960273Y-101872276D01*
X48693286Y-101872276D01*
X48693286Y-102272262D01*
X48703779Y-102374973D01*
X48758926Y-102541395D01*
X48758928Y-102541400D01*
X48850969Y-102690621D01*
X48974939Y-102814591D01*
X49124160Y-102906632D01*
X49124165Y-102906634D01*
X49290587Y-102961781D01*
X49290594Y-102961782D01*
X49393304Y-102972275D01*
X50143284Y-102972275D01*
X50143285Y-102972274D01*
X50143285Y-102055288D01*
X50200292Y-102088201D01*
X50327459Y-102122276D01*
X50459111Y-102122276D01*
X50586278Y-102088201D01*
X50643285Y-102055288D01*
X50643285Y-102972275D01*
X51393257Y-102972275D01*
X51393271Y-102972274D01*
X51495982Y-102961781D01*
X51662404Y-102906634D01*
X51662409Y-102906632D01*
X51811630Y-102814591D01*
X51935600Y-102690621D01*
X52027641Y-102541400D01*
X52027643Y-102541395D01*
X52082790Y-102374973D01*
X52082791Y-102374966D01*
X52093284Y-102272262D01*
X52093285Y-102272249D01*
X52093285Y-101872276D01*
X50826297Y-101872276D01*
X50859210Y-101815269D01*
X50893285Y-101688102D01*
X50893285Y-101556450D01*
X50859210Y-101429283D01*
X50826297Y-101372276D01*
X52093284Y-101372276D01*
X52093284Y-100972304D01*
X52093283Y-100972289D01*
X52082790Y-100869578D01*
X52027643Y-100703156D01*
X52027641Y-100703151D01*
X51935600Y-100553930D01*
X51811630Y-100429960D01*
X51662409Y-100337919D01*
X51662399Y-100337915D01*
X51651557Y-100334322D01*
X51594114Y-100294548D01*
X51567294Y-100230031D01*
X51579611Y-100161255D01*
X51617688Y-100116294D01*
X51623077Y-100112380D01*
X51773389Y-99962068D01*
X51773391Y-99962064D01*
X51773394Y-99962062D01*
X51898333Y-99790096D01*
X51898332Y-99790096D01*
X51898336Y-99790092D01*
X51994842Y-99600688D01*
X52060531Y-99398519D01*
X52093785Y-99188563D01*
X52093785Y-98975989D01*
X52060531Y-98766033D01*
X51994842Y-98563864D01*
X51898336Y-98374460D01*
X51898334Y-98374457D01*
X51898333Y-98374455D01*
X51773394Y-98202489D01*
X51623071Y-98052166D01*
X51451105Y-97927227D01*
X51450400Y-97926867D01*
X51442339Y-97922761D01*
X51391544Y-97874788D01*
X51374748Y-97806968D01*
X51397284Y-97740832D01*
X51442339Y-97701791D01*
X51451101Y-97697327D01*
X51540605Y-97632299D01*
X51623071Y-97572385D01*
X51623073Y-97572382D01*
X51623077Y-97572380D01*
X51773389Y-97422068D01*
X51773391Y-97422064D01*
X51773394Y-97422062D01*
X51898333Y-97250096D01*
X51898332Y-97250096D01*
X51898336Y-97250092D01*
X51994842Y-97060688D01*
X52060531Y-96858519D01*
X52093785Y-96648563D01*
X52093785Y-96435989D01*
X52060531Y-96226033D01*
X51994842Y-96023864D01*
X51898336Y-95834460D01*
X51898334Y-95834457D01*
X51898333Y-95834455D01*
X51773394Y-95662489D01*
X51623071Y-95512166D01*
X51451105Y-95387227D01*
X51450400Y-95386867D01*
X51442339Y-95382761D01*
X51391544Y-95334788D01*
X51374748Y-95266968D01*
X51397284Y-95200832D01*
X51442339Y-95161791D01*
X51451101Y-95157327D01*
X51473074Y-95141362D01*
X51623071Y-95032385D01*
X51623073Y-95032382D01*
X51623077Y-95032380D01*
X51773389Y-94882068D01*
X51773391Y-94882064D01*
X51773394Y-94882062D01*
X51898333Y-94710096D01*
X51898332Y-94710096D01*
X51898336Y-94710092D01*
X51994842Y-94520688D01*
X52060531Y-94318519D01*
X52093785Y-94108563D01*
X52093785Y-93895989D01*
X52060531Y-93686033D01*
X52015801Y-93548371D01*
X52013807Y-93478533D01*
X52049887Y-93418700D01*
X52112588Y-93387872D01*
X52182002Y-93395837D01*
X52221414Y-93422375D01*
X59263694Y-100464655D01*
X59263723Y-100464686D01*
X59406173Y-100607136D01*
X59406177Y-100607139D01*
X59570038Y-100716628D01*
X59570051Y-100716635D01*
X59698792Y-100769961D01*
X59741703Y-100787735D01*
X59752123Y-100792051D01*
X59848771Y-100811275D01*
X59897094Y-100820887D01*
X59945417Y-100830500D01*
X59945418Y-100830500D01*
X72198542Y-100830500D01*
X72229566Y-100824328D01*
X72295188Y-100811275D01*
X72391836Y-100792051D01*
X72445165Y-100769961D01*
X72573914Y-100716632D01*
X72737782Y-100607139D01*
X72877139Y-100467782D01*
X72877140Y-100467779D01*
X72884206Y-100460714D01*
X72884209Y-100460710D01*
X73607778Y-99737141D01*
X73607782Y-99737139D01*
X73747139Y-99597782D01*
X73856632Y-99433914D01*
X73913373Y-99296929D01*
X73932051Y-99251836D01*
X73970500Y-99058540D01*
X73970500Y-98954430D01*
X73990185Y-98887391D01*
X74042989Y-98841636D01*
X74112147Y-98831692D01*
X74175703Y-98860717D01*
X74210682Y-98911097D01*
X74216645Y-98927086D01*
X74216649Y-98927093D01*
X74302809Y-99042187D01*
X74302812Y-99042190D01*
X74417906Y-99128350D01*
X74417913Y-99128354D01*
X74552620Y-99178596D01*
X74552627Y-99178598D01*
X74612155Y-99184999D01*
X74612172Y-99185000D01*
X75260000Y-99185000D01*
X75260000Y-97918012D01*
X75317007Y-97950925D01*
X75444174Y-97985000D01*
X75575826Y-97985000D01*
X75702993Y-97950925D01*
X75760000Y-97918012D01*
X75760000Y-99185000D01*
X76407828Y-99185000D01*
X76407844Y-99184999D01*
X76467372Y-99178598D01*
X76467379Y-99178596D01*
X76602086Y-99128354D01*
X76602093Y-99128350D01*
X76717187Y-99042190D01*
X76717190Y-99042187D01*
X76803350Y-98927093D01*
X76803354Y-98927086D01*
X76853596Y-98792379D01*
X76853598Y-98792372D01*
X76859999Y-98732844D01*
X76860000Y-98732827D01*
X76860000Y-97735000D01*
X75943012Y-97735000D01*
X75975925Y-97677993D01*
X76010000Y-97550826D01*
X76010000Y-97419174D01*
X75975925Y-97292007D01*
X75943012Y-97235000D01*
X76860000Y-97235000D01*
X76860000Y-96237172D01*
X76859999Y-96237155D01*
X76853598Y-96177627D01*
X76853596Y-96177620D01*
X76803354Y-96042913D01*
X76803350Y-96042906D01*
X76717190Y-95927812D01*
X76717187Y-95927809D01*
X76602093Y-95841649D01*
X76602086Y-95841645D01*
X76467379Y-95791403D01*
X76467372Y-95791401D01*
X76407844Y-95785000D01*
X75760000Y-95785000D01*
X75760000Y-97051988D01*
X75702993Y-97019075D01*
X75575826Y-96985000D01*
X75444174Y-96985000D01*
X75317007Y-97019075D01*
X75260000Y-97051988D01*
X75260000Y-95785000D01*
X74612155Y-95785000D01*
X74552627Y-95791401D01*
X74552620Y-95791403D01*
X74417913Y-95841645D01*
X74417906Y-95841649D01*
X74302812Y-95927809D01*
X74302809Y-95927812D01*
X74216649Y-96042906D01*
X74216646Y-96042912D01*
X74167577Y-96174471D01*
X74125705Y-96230404D01*
X74060241Y-96254821D01*
X73991968Y-96239969D01*
X73963714Y-96218818D01*
X73849786Y-96104890D01*
X73677820Y-95979951D01*
X73488414Y-95883444D01*
X73488413Y-95883443D01*
X73488412Y-95883443D01*
X73286243Y-95817754D01*
X73286241Y-95817753D01*
X73286240Y-95817753D01*
X73124957Y-95792208D01*
X73076287Y-95784500D01*
X72863713Y-95784500D01*
X72815042Y-95792208D01*
X72653760Y-95817753D01*
X72451585Y-95883444D01*
X72262179Y-95979951D01*
X72090213Y-96104890D01*
X71939890Y-96255213D01*
X71814949Y-96427182D01*
X71810484Y-96435946D01*
X71762509Y-96486742D01*
X71694688Y-96503536D01*
X71628553Y-96480998D01*
X71589516Y-96435946D01*
X71585050Y-96427182D01*
X71460109Y-96255213D01*
X71309786Y-96104890D01*
X71137820Y-95979951D01*
X70948414Y-95883444D01*
X70948413Y-95883443D01*
X70948412Y-95883443D01*
X70746243Y-95817754D01*
X70746241Y-95817753D01*
X70746240Y-95817753D01*
X70584957Y-95792208D01*
X70536287Y-95784500D01*
X70323713Y-95784500D01*
X70275042Y-95792208D01*
X70113760Y-95817753D01*
X69911585Y-95883444D01*
X69722179Y-95979951D01*
X69550213Y-96104890D01*
X69399890Y-96255213D01*
X69274951Y-96427179D01*
X69178444Y-96616585D01*
X69112753Y-96818760D01*
X69079500Y-97028713D01*
X69079500Y-97941286D01*
X69106429Y-98111313D01*
X69112754Y-98151243D01*
X69150922Y-98268712D01*
X69178444Y-98353414D01*
X69274948Y-98542815D01*
X69340191Y-98632615D01*
X69363670Y-98698422D01*
X69347844Y-98766476D01*
X69297738Y-98815170D01*
X69239872Y-98829500D01*
X65276204Y-98829500D01*
X65209165Y-98809815D01*
X65163410Y-98757011D01*
X65153466Y-98687853D01*
X65182491Y-98624297D01*
X65188523Y-98617819D01*
X65199414Y-98606928D01*
X65301232Y-98466788D01*
X65379873Y-98312445D01*
X65433402Y-98147701D01*
X65460500Y-97976611D01*
X65460500Y-97803389D01*
X65433402Y-97632299D01*
X65379873Y-97467555D01*
X65301232Y-97313212D01*
X65199414Y-97173072D01*
X65076928Y-97050586D01*
X64936788Y-96948768D01*
X64782445Y-96870127D01*
X64617701Y-96816598D01*
X64617699Y-96816597D01*
X64617698Y-96816597D01*
X64486271Y-96795781D01*
X64446611Y-96789500D01*
X64273389Y-96789500D01*
X64233728Y-96795781D01*
X64102302Y-96816597D01*
X64102299Y-96816598D01*
X63973281Y-96858519D01*
X63937552Y-96870128D01*
X63783210Y-96948769D01*
X63783207Y-96948770D01*
X63759745Y-96965818D01*
X63693939Y-96989298D01*
X63686859Y-96989500D01*
X60874362Y-96989500D01*
X60807323Y-96969815D01*
X60786681Y-96953181D01*
X48642731Y-84809231D01*
X48609246Y-84747908D01*
X48607944Y-84740977D01*
X48603402Y-84712299D01*
X48549873Y-84547555D01*
X48549871Y-84547552D01*
X48549871Y-84547550D01*
X48471231Y-84393211D01*
X48369414Y-84253072D01*
X48246928Y-84130586D01*
X48106788Y-84028768D01*
X47952445Y-83950127D01*
X47787701Y-83896598D01*
X47787699Y-83896597D01*
X47787698Y-83896597D01*
X47656271Y-83875781D01*
X47616611Y-83869500D01*
X47443389Y-83869500D01*
X47403728Y-83875781D01*
X47272302Y-83896597D01*
X47107552Y-83950128D01*
X46953211Y-84028768D01*
X46873256Y-84086859D01*
X46813072Y-84130586D01*
X46813070Y-84130588D01*
X46813069Y-84130588D01*
X46690588Y-84253069D01*
X46690588Y-84253070D01*
X46690586Y-84253072D01*
X46646859Y-84313256D01*
X46588768Y-84393211D01*
X46510128Y-84547552D01*
X46456597Y-84712302D01*
X46441245Y-84809231D01*
X46429500Y-84883389D01*
X46429500Y-85056611D01*
X46456598Y-85227701D01*
X46510127Y-85392445D01*
X46588768Y-85546788D01*
X46690586Y-85686928D01*
X46813072Y-85809414D01*
X46953212Y-85911232D01*
X47026133Y-85948387D01*
X47107550Y-85989871D01*
X47107552Y-85989871D01*
X47107555Y-85989873D01*
X47272299Y-86043402D01*
X47300948Y-86047939D01*
X47364081Y-86077866D01*
X47369231Y-86082731D01*
X51784319Y-90497819D01*
X51817804Y-90559142D01*
X51812820Y-90628834D01*
X51770948Y-90684767D01*
X51705484Y-90709184D01*
X51696638Y-90709500D01*
X46861455Y-90709500D01*
X46764812Y-90728724D01*
X46668167Y-90747947D01*
X46668161Y-90747949D01*
X46614834Y-90770037D01*
X46614834Y-90770038D01*
X46569315Y-90788892D01*
X46486089Y-90823366D01*
X46486079Y-90823371D01*
X46322219Y-90932859D01*
X46261919Y-90993160D01*
X46182861Y-91072218D01*
X46182858Y-91072221D01*
X45050966Y-92204113D01*
X45050963Y-92204116D01*
X44987902Y-92267177D01*
X44911604Y-92343474D01*
X44802116Y-92507335D01*
X44802109Y-92507348D01*
X44754330Y-92622701D01*
X44754329Y-92622704D01*
X44742286Y-92651777D01*
X44726695Y-92689415D01*
X44726692Y-92689425D01*
X44688245Y-92882711D01*
X44688245Y-98449478D01*
X44668560Y-98516517D01*
X44637130Y-98549796D01*
X44487130Y-98658776D01*
X44487125Y-98658780D01*
X44331245Y-98814660D01*
X44331241Y-98814665D01*
X44201676Y-98992998D01*
X44101593Y-99189417D01*
X44101592Y-99189420D01*
X44033474Y-99399071D01*
X43998989Y-99616802D01*
X36500500Y-99616802D01*
X36500500Y-95583621D01*
X36520185Y-95516582D01*
X36572989Y-95470827D01*
X36642147Y-95460883D01*
X36705703Y-95489908D01*
X36743477Y-95548686D01*
X36746117Y-95559430D01*
X36794545Y-95802902D01*
X36794548Y-95802913D01*
X36888686Y-96113247D01*
X37012786Y-96412849D01*
X37012788Y-96412854D01*
X37165646Y-96698830D01*
X37165657Y-96698848D01*
X37345811Y-96968467D01*
X37345821Y-96968481D01*
X37551546Y-97219158D01*
X37780841Y-97448453D01*
X37780846Y-97448457D01*
X37780847Y-97448458D01*
X38031524Y-97654183D01*
X38301158Y-97834347D01*
X38301167Y-97834352D01*
X38301169Y-97834353D01*
X38587145Y-97987211D01*
X38587147Y-97987211D01*
X38587153Y-97987215D01*
X38886754Y-98111314D01*
X39197077Y-98205449D01*
X39197083Y-98205450D01*
X39197086Y-98205451D01*
X39197097Y-98205454D01*
X39396528Y-98245122D01*
X39515132Y-98268714D01*
X39837857Y-98300500D01*
X39837860Y-98300500D01*
X40162140Y-98300500D01*
X40162143Y-98300500D01*
X40484868Y-98268714D01*
X40642295Y-98237399D01*
X40802902Y-98205454D01*
X40802913Y-98205451D01*
X40802913Y-98205450D01*
X40802923Y-98205449D01*
X41113246Y-98111314D01*
X41412847Y-97987215D01*
X41698842Y-97834347D01*
X41968476Y-97654183D01*
X42219153Y-97448458D01*
X42448458Y-97219153D01*
X42654183Y-96968476D01*
X42834347Y-96698842D01*
X42987215Y-96412847D01*
X43111314Y-96113246D01*
X43205449Y-95802923D01*
X43205451Y-95802913D01*
X43205454Y-95802902D01*
X43249071Y-95583621D01*
X43268714Y-95484868D01*
X43300500Y-95162143D01*
X43300500Y-94837857D01*
X43268714Y-94515132D01*
X43245122Y-94396528D01*
X43205454Y-94197097D01*
X43205451Y-94197086D01*
X43205450Y-94197083D01*
X43205449Y-94197077D01*
X43111314Y-93886754D01*
X42987215Y-93587153D01*
X42834347Y-93301158D01*
X42654183Y-93031524D01*
X42448458Y-92780847D01*
X42448457Y-92780846D01*
X42448453Y-92780841D01*
X42219158Y-92551546D01*
X41968481Y-92345821D01*
X41968480Y-92345820D01*
X41968476Y-92345817D01*
X41698842Y-92165653D01*
X41698837Y-92165650D01*
X41698830Y-92165646D01*
X41412854Y-92012788D01*
X41412849Y-92012786D01*
X41113247Y-91888686D01*
X40802913Y-91794548D01*
X40802902Y-91794545D01*
X40484874Y-91731287D01*
X40484857Y-91731284D01*
X40240812Y-91707248D01*
X40162143Y-91699500D01*
X39837857Y-91699500D01*
X39765099Y-91706666D01*
X39515142Y-91731284D01*
X39515125Y-91731287D01*
X39197097Y-91794545D01*
X39197086Y-91794548D01*
X38886752Y-91888686D01*
X38587150Y-92012786D01*
X38587145Y-92012788D01*
X38301169Y-92165646D01*
X38301151Y-92165657D01*
X38031532Y-92345811D01*
X38031518Y-92345821D01*
X37780841Y-92551546D01*
X37551546Y-92780841D01*
X37345821Y-93031518D01*
X37345811Y-93031532D01*
X37165657Y-93301151D01*
X37165646Y-93301169D01*
X37012788Y-93587145D01*
X37012786Y-93587150D01*
X36888686Y-93886752D01*
X36794548Y-94197086D01*
X36794545Y-94197097D01*
X36746117Y-94440569D01*
X36713732Y-94502480D01*
X36653017Y-94537054D01*
X36583247Y-94533315D01*
X36526575Y-94492449D01*
X36500994Y-94427431D01*
X36500500Y-94416378D01*
X36500500Y-75025088D01*
X36520185Y-74958049D01*
X36572989Y-74912294D01*
X36642147Y-74902350D01*
X36697385Y-74924770D01*
X36697414Y-74924791D01*
X36869390Y-75049738D01*
X37058794Y-75146244D01*
X37260963Y-75211933D01*
X37470919Y-75245187D01*
X37470920Y-75245187D01*
X37683492Y-75245187D01*
X37683493Y-75245187D01*
X37893449Y-75211933D01*
X38095618Y-75146244D01*
X38285022Y-75049738D01*
X38326779Y-75019400D01*
X38456992Y-74924796D01*
X38456994Y-74924793D01*
X38456998Y-74924791D01*
X38607310Y-74774479D01*
X38611224Y-74769091D01*
X38666548Y-74726421D01*
X38736161Y-74720435D01*
X38797959Y-74753035D01*
X38829252Y-74802959D01*
X38832845Y-74813801D01*
X38832849Y-74813811D01*
X38924890Y-74963032D01*
X39048860Y-75087002D01*
X39198081Y-75179043D01*
X39198086Y-75179045D01*
X39364508Y-75234192D01*
X39364515Y-75234193D01*
X39467225Y-75244686D01*
X39867205Y-75244686D01*
X39867206Y-75244685D01*
X39867206Y-73977699D01*
X39924213Y-74010612D01*
X40051380Y-74044687D01*
X40183032Y-74044687D01*
X40310199Y-74010612D01*
X40367206Y-73977699D01*
X40367206Y-75244686D01*
X40767178Y-75244686D01*
X40767192Y-75244685D01*
X40869903Y-75234192D01*
X41036325Y-75179045D01*
X41036330Y-75179043D01*
X41185551Y-75087002D01*
X41309521Y-74963032D01*
X41401562Y-74813811D01*
X41401565Y-74813804D01*
X41405157Y-74802965D01*
X41444929Y-74745520D01*
X41509444Y-74718696D01*
X41578220Y-74731010D01*
X41623183Y-74769086D01*
X41627096Y-74774472D01*
X41627100Y-74774477D01*
X41777419Y-74924796D01*
X41949385Y-75049735D01*
X41949387Y-75049736D01*
X41949390Y-75049738D01*
X42138794Y-75146244D01*
X42340963Y-75211933D01*
X42550919Y-75245187D01*
X42550920Y-75245187D01*
X42763492Y-75245187D01*
X42763493Y-75245187D01*
X42973449Y-75211933D01*
X43175618Y-75146244D01*
X43365022Y-75049738D01*
X43406779Y-75019400D01*
X43536992Y-74924796D01*
X43536994Y-74924793D01*
X43536998Y-74924791D01*
X43687310Y-74774479D01*
X43687312Y-74774475D01*
X43687315Y-74774473D01*
X43812254Y-74602507D01*
X43812253Y-74602507D01*
X43812257Y-74602503D01*
X43816720Y-74593741D01*
X43864694Y-74542946D01*
X43932514Y-74526150D01*
X43998650Y-74548686D01*
X44037692Y-74593743D01*
X44042157Y-74602507D01*
X44167096Y-74774473D01*
X44317419Y-74924796D01*
X44489385Y-75049735D01*
X44489387Y-75049736D01*
X44489390Y-75049738D01*
X44678794Y-75146244D01*
X44880963Y-75211933D01*
X45090919Y-75245187D01*
X45090920Y-75245187D01*
X45303492Y-75245187D01*
X45303493Y-75245187D01*
X45513449Y-75211933D01*
X45715618Y-75146244D01*
X45905022Y-75049738D01*
X45946779Y-75019400D01*
X46076992Y-74924796D01*
X46076994Y-74924793D01*
X46076998Y-74924791D01*
X46227310Y-74774479D01*
X46227312Y-74774475D01*
X46227315Y-74774473D01*
X46352254Y-74602507D01*
X46352253Y-74602507D01*
X46352257Y-74602503D01*
X46356720Y-74593741D01*
X46404694Y-74542946D01*
X46472514Y-74526150D01*
X46538650Y-74548686D01*
X46577692Y-74593743D01*
X46582157Y-74602507D01*
X46707096Y-74774473D01*
X46857419Y-74924796D01*
X47029385Y-75049735D01*
X47029387Y-75049736D01*
X47029390Y-75049738D01*
X47218794Y-75146244D01*
X47420963Y-75211933D01*
X47630919Y-75245187D01*
X47630920Y-75245187D01*
X47843492Y-75245187D01*
X47843493Y-75245187D01*
X48053449Y-75211933D01*
X48255618Y-75146244D01*
X48445022Y-75049738D01*
X48486779Y-75019400D01*
X48616992Y-74924796D01*
X48616994Y-74924793D01*
X48616998Y-74924791D01*
X48767310Y-74774479D01*
X48767312Y-74774475D01*
X48767315Y-74774473D01*
X48892254Y-74602507D01*
X48892253Y-74602507D01*
X48892257Y-74602503D01*
X48988763Y-74413099D01*
X49054452Y-74210930D01*
X49087706Y-74000974D01*
X49087706Y-73088400D01*
X49054452Y-72878444D01*
X48988763Y-72676275D01*
X48892257Y-72486871D01*
X48892255Y-72486868D01*
X48892254Y-72486866D01*
X48767315Y-72314900D01*
X48654596Y-72202181D01*
X48621111Y-72140858D01*
X48626095Y-72071166D01*
X48667967Y-72015233D01*
X48733431Y-71990816D01*
X48742277Y-71990500D01*
X52856940Y-71990500D01*
X52923979Y-72010185D01*
X52969734Y-72062989D01*
X52979678Y-72132147D01*
X52950653Y-72195703D01*
X52925861Y-72216722D01*
X52926125Y-72217085D01*
X52750213Y-72344890D01*
X52599890Y-72495213D01*
X52474951Y-72667179D01*
X52378444Y-72856585D01*
X52312753Y-73058760D01*
X52279500Y-73268713D01*
X52279500Y-74181287D01*
X52312754Y-74391243D01*
X52319855Y-74413099D01*
X52378444Y-74593414D01*
X52474951Y-74782820D01*
X52599890Y-74954786D01*
X52603181Y-74958077D01*
X52636666Y-75019400D01*
X52639500Y-75045758D01*
X52639500Y-75448696D01*
X52674103Y-75622658D01*
X52674105Y-75622666D01*
X52708046Y-75704606D01*
X52708046Y-75704607D01*
X52741984Y-75786542D01*
X52741985Y-75786544D01*
X52801063Y-75874960D01*
X52840537Y-75934038D01*
X52840540Y-75934041D01*
X53527462Y-76620961D01*
X53530536Y-76624035D01*
X53655965Y-76749464D01*
X53688356Y-76771107D01*
X53695696Y-76777952D01*
X53708592Y-76799729D01*
X53724823Y-76819150D01*
X53726095Y-76829283D01*
X53731299Y-76838070D01*
X53730375Y-76863360D01*
X53733529Y-76888475D01*
X53729120Y-76897688D01*
X53728748Y-76907893D01*
X53714297Y-76928669D01*
X53703373Y-76951502D01*
X53693613Y-76958407D01*
X53688853Y-76965253D01*
X53677044Y-76970133D01*
X53658580Y-76983198D01*
X53587153Y-77012785D01*
X53587150Y-77012786D01*
X53587144Y-77012789D01*
X53301169Y-77165646D01*
X53301151Y-77165657D01*
X53031532Y-77345811D01*
X53031518Y-77345821D01*
X52780841Y-77551546D01*
X52551546Y-77780841D01*
X52345821Y-78031518D01*
X52345811Y-78031532D01*
X52165657Y-78301151D01*
X52165646Y-78301169D01*
X52012788Y-78587145D01*
X52012786Y-78587150D01*
X51888686Y-78886752D01*
X51794548Y-79197086D01*
X51794545Y-79197097D01*
X51731287Y-79515125D01*
X51731284Y-79515142D01*
X51706666Y-79765099D01*
X51699500Y-79837857D01*
X51699500Y-80162143D01*
X51699703Y-80164205D01*
X51731284Y-80484857D01*
X51731287Y-80484874D01*
X51794545Y-80802902D01*
X51794548Y-80802913D01*
X51888686Y-81113247D01*
X52012786Y-81412849D01*
X52012788Y-81412854D01*
X52165646Y-81698830D01*
X52165657Y-81698848D01*
X52345811Y-81968467D01*
X52345821Y-81968481D01*
X52551546Y-82219158D01*
X52780841Y-82448453D01*
X52780846Y-82448457D01*
X52780847Y-82448458D01*
X53031524Y-82654183D01*
X53301158Y-82834347D01*
X53301167Y-82834352D01*
X53301169Y-82834353D01*
X53587145Y-82987211D01*
X53587147Y-82987211D01*
X53587153Y-82987215D01*
X53886754Y-83111314D01*
X54197077Y-83205449D01*
X54197083Y-83205450D01*
X54197086Y-83205451D01*
X54197097Y-83205454D01*
X54396528Y-83245122D01*
X54515132Y-83268714D01*
X54837857Y-83300500D01*
X54837860Y-83300500D01*
X55162140Y-83300500D01*
X55162143Y-83300500D01*
X55484868Y-83268714D01*
X55642295Y-83237399D01*
X55802902Y-83205454D01*
X55802913Y-83205451D01*
X55802913Y-83205450D01*
X55802923Y-83205449D01*
X56113246Y-83111314D01*
X56412847Y-82987215D01*
X56698842Y-82834347D01*
X56968476Y-82654183D01*
X57219153Y-82448458D01*
X57448458Y-82219153D01*
X57654183Y-81968476D01*
X57834347Y-81698842D01*
X57987215Y-81412847D01*
X58111314Y-81113246D01*
X58205449Y-80802923D01*
X58205451Y-80802913D01*
X58205454Y-80802902D01*
X58237399Y-80642295D01*
X58268714Y-80484868D01*
X58300500Y-80162143D01*
X58300500Y-79837857D01*
X58273958Y-79568376D01*
X58286977Y-79499731D01*
X58335042Y-79449021D01*
X58402893Y-79432346D01*
X58468987Y-79455002D01*
X58485042Y-79468542D01*
X59943181Y-80926680D01*
X59976666Y-80988003D01*
X59979500Y-81014361D01*
X59979500Y-85165759D01*
X60014103Y-85339721D01*
X60014105Y-85339729D01*
X60048046Y-85421669D01*
X60081987Y-85503610D01*
X60110838Y-85546788D01*
X60125453Y-85568661D01*
X60180537Y-85651101D01*
X60180538Y-85651102D01*
X61053473Y-86524036D01*
X61332267Y-86802830D01*
X61365752Y-86864153D01*
X61367059Y-86871110D01*
X61371597Y-86899762D01*
X61425128Y-87064510D01*
X61503331Y-87217993D01*
X61503768Y-87218851D01*
X61605586Y-87358991D01*
X61728072Y-87481477D01*
X61868212Y-87583295D01*
X62022555Y-87661936D01*
X62187299Y-87715465D01*
X62358389Y-87742563D01*
X62358390Y-87742563D01*
X62531610Y-87742563D01*
X62531611Y-87742563D01*
X62702701Y-87715465D01*
X62853186Y-87666568D01*
X62855515Y-87666200D01*
X62856569Y-87665523D01*
X62891504Y-87660500D01*
X62984217Y-87660500D01*
X63051256Y-87680185D01*
X63071898Y-87696819D01*
X63072860Y-87697781D01*
X63072861Y-87697782D01*
X63150079Y-87775000D01*
X63212219Y-87837140D01*
X63376080Y-87946628D01*
X63376086Y-87946632D01*
X63482745Y-87990811D01*
X63514351Y-88003902D01*
X63541834Y-88026052D01*
X63568750Y-88047742D01*
X63568750Y-88047743D01*
X63568752Y-88047745D01*
X63576026Y-88069603D01*
X63590815Y-88114036D01*
X63590814Y-88114038D01*
X63590815Y-88114040D01*
X63584520Y-88138702D01*
X63573536Y-88181736D01*
X63522398Y-88229346D01*
X63505217Y-88236391D01*
X63472533Y-88247011D01*
X63447548Y-88255129D01*
X63436059Y-88260984D01*
X63379763Y-88274500D01*
X61046454Y-88274500D01*
X61014391Y-88280876D01*
X61014392Y-88280877D01*
X60853170Y-88312946D01*
X60853164Y-88312948D01*
X60671088Y-88388366D01*
X60671079Y-88388371D01*
X60507219Y-88497859D01*
X60507215Y-88497862D01*
X58848124Y-90156956D01*
X58821196Y-90171659D01*
X58795378Y-90188252D01*
X58789177Y-90189143D01*
X58786801Y-90190441D01*
X58760443Y-90193275D01*
X58632974Y-90193275D01*
X58576678Y-90179759D01*
X58565186Y-90173903D01*
X58463385Y-90140826D01*
X58400438Y-90120373D01*
X58400436Y-90120372D01*
X58400435Y-90120372D01*
X58269008Y-90099556D01*
X58229348Y-90093275D01*
X58056126Y-90093275D01*
X58016465Y-90099556D01*
X57885039Y-90120372D01*
X57720289Y-90173903D01*
X57565948Y-90252543D01*
X57507687Y-90294873D01*
X57425809Y-90354361D01*
X57425807Y-90354363D01*
X57425806Y-90354363D01*
X57303325Y-90476844D01*
X57303325Y-90476845D01*
X57303323Y-90476847D01*
X57288086Y-90497819D01*
X57201505Y-90616986D01*
X57122865Y-90771327D01*
X57069334Y-90936077D01*
X57047333Y-91074986D01*
X57042237Y-91107164D01*
X57042237Y-91280386D01*
X57046102Y-91304786D01*
X57052330Y-91344114D01*
X57069335Y-91451476D01*
X57122864Y-91616220D01*
X57201505Y-91770563D01*
X57303323Y-91910703D01*
X57425809Y-92033189D01*
X57565949Y-92135007D01*
X57720292Y-92213648D01*
X57885036Y-92267177D01*
X58056126Y-92294275D01*
X58056127Y-92294275D01*
X58229347Y-92294275D01*
X58229348Y-92294275D01*
X58400438Y-92267177D01*
X58565182Y-92213648D01*
X58565186Y-92213646D01*
X58576678Y-92207791D01*
X58632974Y-92194275D01*
X59324768Y-92194275D01*
X59403865Y-92178540D01*
X59468657Y-92165653D01*
X59518061Y-92155826D01*
X59576781Y-92131503D01*
X59700139Y-92080407D01*
X59864007Y-91970914D01*
X60003364Y-91831557D01*
X60003364Y-91831555D01*
X60013572Y-91821348D01*
X60013573Y-91821345D01*
X61523102Y-90311819D01*
X61584425Y-90278334D01*
X61610783Y-90275500D01*
X63379763Y-90275500D01*
X63436059Y-90289016D01*
X63447550Y-90294871D01*
X63447552Y-90294871D01*
X63447555Y-90294873D01*
X63612299Y-90348402D01*
X63783389Y-90375500D01*
X63783390Y-90375500D01*
X63956610Y-90375500D01*
X63956611Y-90375500D01*
X64127701Y-90348402D01*
X64292445Y-90294873D01*
X64446788Y-90216232D01*
X64586928Y-90114414D01*
X64709414Y-89991928D01*
X64811232Y-89851788D01*
X64889873Y-89697445D01*
X64943402Y-89532701D01*
X64970500Y-89361611D01*
X64970500Y-89188389D01*
X64943402Y-89017299D01*
X64889873Y-88852555D01*
X64811232Y-88698212D01*
X64709414Y-88558072D01*
X64586928Y-88435586D01*
X64502851Y-88374500D01*
X64446786Y-88333766D01*
X64370672Y-88294985D01*
X64319875Y-88247011D01*
X64303080Y-88179190D01*
X64325617Y-88113055D01*
X64380332Y-88069603D01*
X64426966Y-88060500D01*
X67474218Y-88060500D01*
X67541257Y-88080185D01*
X67561899Y-88096819D01*
X71128181Y-91663101D01*
X71142884Y-91690028D01*
X71159477Y-91715847D01*
X71160368Y-91722047D01*
X71161666Y-91724424D01*
X71164500Y-91750782D01*
X71164500Y-91874763D01*
X71150984Y-91931059D01*
X71145128Y-91942550D01*
X71091597Y-92107302D01*
X71064500Y-92278389D01*
X71064500Y-92451610D01*
X71080327Y-92551542D01*
X71091598Y-92622701D01*
X71145127Y-92787445D01*
X71223768Y-92941788D01*
X71325586Y-93081928D01*
X71448072Y-93204414D01*
X71588212Y-93306232D01*
X71742555Y-93384873D01*
X71907299Y-93438402D01*
X72078389Y-93465500D01*
X72078390Y-93465500D01*
X72251610Y-93465500D01*
X72251611Y-93465500D01*
X72422701Y-93438402D01*
X72587445Y-93384873D01*
X72741788Y-93306232D01*
X72881928Y-93204414D01*
X73004414Y-93081928D01*
X73106232Y-92941788D01*
X73184873Y-92787445D01*
X73238402Y-92622701D01*
X73265500Y-92451611D01*
X73265500Y-92278389D01*
X73238402Y-92107299D01*
X73184873Y-91942555D01*
X73184871Y-91942552D01*
X73184871Y-91942550D01*
X73179016Y-91931059D01*
X73165500Y-91874763D01*
X73165500Y-91186456D01*
X73127052Y-90993170D01*
X73127051Y-90993169D01*
X73127051Y-90993165D01*
X73103405Y-90936077D01*
X73051635Y-90811092D01*
X73051628Y-90811079D01*
X72942140Y-90647219D01*
X72911907Y-90616986D01*
X72802782Y-90507861D01*
X72802781Y-90507860D01*
X71913634Y-89618713D01*
X93024500Y-89618713D01*
X93024500Y-90531287D01*
X93057754Y-90741243D01*
X93080449Y-90811092D01*
X93123444Y-90943414D01*
X93219951Y-91132820D01*
X93344890Y-91304786D01*
X93495213Y-91455109D01*
X93667179Y-91580048D01*
X93667181Y-91580049D01*
X93667184Y-91580051D01*
X93856588Y-91676557D01*
X94058757Y-91742246D01*
X94268713Y-91775500D01*
X94268714Y-91775500D01*
X94481286Y-91775500D01*
X94481287Y-91775500D01*
X94691243Y-91742246D01*
X94893412Y-91676557D01*
X95082816Y-91580051D01*
X95104789Y-91564086D01*
X95254786Y-91455109D01*
X95254788Y-91455106D01*
X95254792Y-91455104D01*
X95405104Y-91304792D01*
X95409018Y-91299404D01*
X95464342Y-91256734D01*
X95533955Y-91250748D01*
X95595753Y-91283348D01*
X95627046Y-91333272D01*
X95630639Y-91344114D01*
X95630643Y-91344124D01*
X95722684Y-91493345D01*
X95846654Y-91617315D01*
X95995875Y-91709356D01*
X95995880Y-91709358D01*
X96162302Y-91764505D01*
X96162309Y-91764506D01*
X96265019Y-91774999D01*
X96664999Y-91774999D01*
X96665000Y-91774998D01*
X96665000Y-90508012D01*
X96722007Y-90540925D01*
X96849174Y-90575000D01*
X96980826Y-90575000D01*
X97107993Y-90540925D01*
X97165000Y-90508012D01*
X97165000Y-91774999D01*
X97564972Y-91774999D01*
X97564986Y-91774998D01*
X97667697Y-91764505D01*
X97834119Y-91709358D01*
X97834124Y-91709356D01*
X97983345Y-91617315D01*
X98107315Y-91493345D01*
X98199356Y-91344124D01*
X98199358Y-91344119D01*
X98254505Y-91177697D01*
X98254506Y-91177690D01*
X98264999Y-91074986D01*
X98265000Y-91074973D01*
X98265000Y-90325000D01*
X97348012Y-90325000D01*
X97380925Y-90267993D01*
X97415000Y-90140826D01*
X97415000Y-90009174D01*
X97380925Y-89882007D01*
X97348012Y-89825000D01*
X98264999Y-89825000D01*
X98264999Y-89075028D01*
X98264998Y-89075013D01*
X98254505Y-88972302D01*
X98199358Y-88805880D01*
X98199356Y-88805875D01*
X98107315Y-88656654D01*
X97983345Y-88532684D01*
X97834124Y-88440643D01*
X97834119Y-88440641D01*
X97667697Y-88385494D01*
X97667690Y-88385493D01*
X97564986Y-88375000D01*
X97165000Y-88375000D01*
X97165000Y-89641988D01*
X97107993Y-89609075D01*
X96980826Y-89575000D01*
X96849174Y-89575000D01*
X96722007Y-89609075D01*
X96665000Y-89641988D01*
X96665000Y-88375000D01*
X96265028Y-88375000D01*
X96265012Y-88375001D01*
X96162302Y-88385494D01*
X95995880Y-88440641D01*
X95995875Y-88440643D01*
X95846654Y-88532684D01*
X95722684Y-88656654D01*
X95630643Y-88805875D01*
X95630641Y-88805881D01*
X95627046Y-88816729D01*
X95587270Y-88874171D01*
X95522753Y-88900991D01*
X95453977Y-88888672D01*
X95409020Y-88850598D01*
X95405105Y-88845209D01*
X95254786Y-88694890D01*
X95082820Y-88569951D01*
X94893414Y-88473444D01*
X94893413Y-88473443D01*
X94893412Y-88473443D01*
X94691243Y-88407754D01*
X94691241Y-88407753D01*
X94691240Y-88407753D01*
X94529957Y-88382208D01*
X94481287Y-88374500D01*
X94268713Y-88374500D01*
X94220042Y-88382208D01*
X94058760Y-88407753D01*
X93856585Y-88473444D01*
X93667179Y-88569951D01*
X93495213Y-88694890D01*
X93344890Y-88845213D01*
X93219951Y-89017179D01*
X93123444Y-89206585D01*
X93057753Y-89408760D01*
X93024500Y-89618713D01*
X71913634Y-89618713D01*
X68819933Y-86525013D01*
X98760000Y-86525013D01*
X98760000Y-87275000D01*
X99676988Y-87275000D01*
X99644075Y-87332007D01*
X99610000Y-87459174D01*
X99610000Y-87590826D01*
X99644075Y-87717993D01*
X99676988Y-87775000D01*
X98760001Y-87775000D01*
X98760001Y-88524986D01*
X98770494Y-88627697D01*
X98825641Y-88794119D01*
X98825643Y-88794124D01*
X98917684Y-88943345D01*
X99041654Y-89067315D01*
X99190875Y-89159356D01*
X99190880Y-89159358D01*
X99357302Y-89214505D01*
X99357309Y-89214506D01*
X99460019Y-89224999D01*
X99859999Y-89224999D01*
X99860000Y-89224998D01*
X99860000Y-87958012D01*
X99917007Y-87990925D01*
X100044174Y-88025000D01*
X100175826Y-88025000D01*
X100302993Y-87990925D01*
X100360000Y-87958012D01*
X100360000Y-89224999D01*
X100759972Y-89224999D01*
X100759986Y-89224998D01*
X100862697Y-89214505D01*
X101029119Y-89159358D01*
X101029124Y-89159356D01*
X101178345Y-89067315D01*
X101302315Y-88943345D01*
X101394356Y-88794124D01*
X101394359Y-88794117D01*
X101397951Y-88783278D01*
X101437723Y-88725833D01*
X101502238Y-88699009D01*
X101571014Y-88711323D01*
X101615977Y-88749399D01*
X101619890Y-88754785D01*
X101619894Y-88754790D01*
X101770213Y-88905109D01*
X101942179Y-89030048D01*
X101942181Y-89030049D01*
X101942184Y-89030051D01*
X102131588Y-89126557D01*
X102333757Y-89192246D01*
X102543713Y-89225500D01*
X102543714Y-89225500D01*
X102756286Y-89225500D01*
X102756287Y-89225500D01*
X102966243Y-89192246D01*
X103168412Y-89126557D01*
X103357816Y-89030051D01*
X103379789Y-89014086D01*
X103529786Y-88905109D01*
X103529788Y-88905106D01*
X103529792Y-88905104D01*
X103680104Y-88754792D01*
X103680106Y-88754788D01*
X103680109Y-88754786D01*
X103805048Y-88582820D01*
X103805047Y-88582820D01*
X103805051Y-88582816D01*
X103901557Y-88393412D01*
X103967246Y-88191243D01*
X104000500Y-87981287D01*
X104000500Y-87068713D01*
X103967246Y-86858757D01*
X103901557Y-86656588D01*
X103805051Y-86467184D01*
X103805049Y-86467181D01*
X103805048Y-86467179D01*
X103680109Y-86295213D01*
X103529786Y-86144890D01*
X103357820Y-86019951D01*
X103168414Y-85923444D01*
X103168413Y-85923443D01*
X103168412Y-85923443D01*
X102966243Y-85857754D01*
X102966241Y-85857753D01*
X102966240Y-85857753D01*
X102804957Y-85832208D01*
X102756287Y-85824500D01*
X102543713Y-85824500D01*
X102495042Y-85832208D01*
X102333760Y-85857753D01*
X102333757Y-85857754D01*
X102169173Y-85911231D01*
X102131585Y-85923444D01*
X101942179Y-86019951D01*
X101770213Y-86144890D01*
X101619892Y-86295211D01*
X101615974Y-86300605D01*
X101560643Y-86343270D01*
X101491029Y-86349248D01*
X101429235Y-86316641D01*
X101397951Y-86266723D01*
X101394357Y-86255878D01*
X101394356Y-86255875D01*
X101302315Y-86106654D01*
X101178345Y-85982684D01*
X101029124Y-85890643D01*
X101029119Y-85890641D01*
X100862697Y-85835494D01*
X100862690Y-85835493D01*
X100759986Y-85825000D01*
X100360000Y-85825000D01*
X100360000Y-87091988D01*
X100302993Y-87059075D01*
X100175826Y-87025000D01*
X100044174Y-87025000D01*
X99917007Y-87059075D01*
X99860000Y-87091988D01*
X99860000Y-85825000D01*
X99460028Y-85825000D01*
X99460012Y-85825001D01*
X99357302Y-85835494D01*
X99190880Y-85890641D01*
X99190875Y-85890643D01*
X99041654Y-85982684D01*
X98917684Y-86106654D01*
X98825643Y-86255875D01*
X98825641Y-86255880D01*
X98770494Y-86422302D01*
X98770493Y-86422309D01*
X98760000Y-86525013D01*
X68819933Y-86525013D01*
X68765194Y-86470274D01*
X68731710Y-86408952D01*
X68736694Y-86339260D01*
X68778566Y-86283327D01*
X68796581Y-86272109D01*
X68803339Y-86268665D01*
X68947816Y-86195051D01*
X69069485Y-86106654D01*
X69119786Y-86070109D01*
X69119788Y-86070106D01*
X69119792Y-86070104D01*
X69270104Y-85919792D01*
X69270106Y-85919788D01*
X69270109Y-85919786D01*
X69395048Y-85747820D01*
X69395049Y-85747819D01*
X69395051Y-85747816D01*
X69491557Y-85558412D01*
X69557246Y-85356243D01*
X69590500Y-85146287D01*
X69590500Y-84233713D01*
X70459500Y-84233713D01*
X70459500Y-85146287D01*
X70462584Y-85165759D01*
X70476011Y-85250536D01*
X70492754Y-85356243D01*
X70514012Y-85421669D01*
X70558444Y-85558414D01*
X70654951Y-85747820D01*
X70779890Y-85919786D01*
X70930213Y-86070109D01*
X71102179Y-86195048D01*
X71102181Y-86195049D01*
X71102184Y-86195051D01*
X71291588Y-86291557D01*
X71493757Y-86357246D01*
X71703713Y-86390500D01*
X71703714Y-86390500D01*
X71916286Y-86390500D01*
X71916287Y-86390500D01*
X72126243Y-86357246D01*
X72328412Y-86291557D01*
X72517816Y-86195051D01*
X72639485Y-86106654D01*
X72689786Y-86070109D01*
X72689788Y-86070106D01*
X72689792Y-86070104D01*
X72840104Y-85919792D01*
X72840106Y-85919788D01*
X72840109Y-85919786D01*
X72965048Y-85747820D01*
X72965049Y-85747819D01*
X72965051Y-85747816D01*
X72969514Y-85739054D01*
X73017488Y-85688259D01*
X73085308Y-85671463D01*
X73151444Y-85693999D01*
X73190486Y-85739056D01*
X73194951Y-85747820D01*
X73319890Y-85919786D01*
X73470213Y-86070109D01*
X73642179Y-86195048D01*
X73642181Y-86195049D01*
X73642184Y-86195051D01*
X73831588Y-86291557D01*
X74033757Y-86357246D01*
X74243713Y-86390500D01*
X74243714Y-86390500D01*
X74456286Y-86390500D01*
X74456287Y-86390500D01*
X74666243Y-86357246D01*
X74868412Y-86291557D01*
X75057816Y-86195051D01*
X75179485Y-86106654D01*
X75229786Y-86070109D01*
X75229788Y-86070106D01*
X75229792Y-86070104D01*
X75380104Y-85919792D01*
X75380106Y-85919788D01*
X75380109Y-85919786D01*
X75505048Y-85747820D01*
X75505049Y-85747819D01*
X75505051Y-85747816D01*
X75601557Y-85558412D01*
X75667246Y-85356243D01*
X75700500Y-85146287D01*
X75700500Y-84233713D01*
X75667246Y-84023757D01*
X75601557Y-83821588D01*
X75505051Y-83632184D01*
X75505049Y-83632181D01*
X75505048Y-83632179D01*
X75380109Y-83460213D01*
X75229786Y-83309890D01*
X75057820Y-83184951D01*
X74868414Y-83088444D01*
X74868413Y-83088443D01*
X74868412Y-83088443D01*
X74666243Y-83022754D01*
X74666241Y-83022753D01*
X74666240Y-83022753D01*
X74504957Y-82997208D01*
X74456287Y-82989500D01*
X74243713Y-82989500D01*
X74195042Y-82997208D01*
X74033760Y-83022753D01*
X73831585Y-83088444D01*
X73642179Y-83184951D01*
X73470213Y-83309890D01*
X73319890Y-83460213D01*
X73194949Y-83632182D01*
X73190484Y-83640946D01*
X73142509Y-83691742D01*
X73074688Y-83708536D01*
X73008553Y-83685998D01*
X72969516Y-83640946D01*
X72965050Y-83632182D01*
X72840109Y-83460213D01*
X72689786Y-83309890D01*
X72517820Y-83184951D01*
X72328414Y-83088444D01*
X72328413Y-83088443D01*
X72328412Y-83088443D01*
X72126243Y-83022754D01*
X72126241Y-83022753D01*
X72126240Y-83022753D01*
X71964957Y-82997208D01*
X71916287Y-82989500D01*
X71703713Y-82989500D01*
X71655042Y-82997208D01*
X71493760Y-83022753D01*
X71291585Y-83088444D01*
X71102179Y-83184951D01*
X70930213Y-83309890D01*
X70779890Y-83460213D01*
X70654951Y-83632179D01*
X70558444Y-83821585D01*
X70492753Y-84023760D01*
X70459500Y-84233713D01*
X69590500Y-84233713D01*
X69557246Y-84023757D01*
X69491557Y-83821588D01*
X69395051Y-83632184D01*
X69395049Y-83632181D01*
X69395048Y-83632179D01*
X69270109Y-83460213D01*
X69119786Y-83309890D01*
X68947820Y-83184951D01*
X68758414Y-83088444D01*
X68758413Y-83088443D01*
X68758412Y-83088443D01*
X68556243Y-83022754D01*
X68556241Y-83022753D01*
X68556240Y-83022753D01*
X68394957Y-82997208D01*
X68346287Y-82989500D01*
X68133713Y-82989500D01*
X68085042Y-82997208D01*
X67923760Y-83022753D01*
X67721585Y-83088444D01*
X67532179Y-83184951D01*
X67360213Y-83309890D01*
X67209890Y-83460213D01*
X67084949Y-83632182D01*
X67080484Y-83640946D01*
X67032509Y-83691742D01*
X66964688Y-83708536D01*
X66898553Y-83685998D01*
X66859516Y-83640946D01*
X66855050Y-83632182D01*
X66730109Y-83460213D01*
X66579786Y-83309890D01*
X66407820Y-83184951D01*
X66218414Y-83088444D01*
X66218413Y-83088443D01*
X66218412Y-83088443D01*
X66016243Y-83022754D01*
X66016241Y-83022753D01*
X66016240Y-83022753D01*
X65854957Y-82997208D01*
X65806287Y-82989500D01*
X65593713Y-82989500D01*
X65545042Y-82997208D01*
X65383760Y-83022753D01*
X65181585Y-83088444D01*
X64992179Y-83184951D01*
X64820213Y-83309890D01*
X64669890Y-83460213D01*
X64544951Y-83632179D01*
X64448444Y-83821585D01*
X64382753Y-84023760D01*
X64349500Y-84233713D01*
X64349500Y-85146287D01*
X64352584Y-85165759D01*
X64366011Y-85250536D01*
X64382754Y-85356243D01*
X64448443Y-85558412D01*
X64530795Y-85720038D01*
X64544951Y-85747819D01*
X64628354Y-85862615D01*
X64632585Y-85874474D01*
X64640830Y-85883989D01*
X64644103Y-85906755D01*
X64651834Y-85928421D01*
X64648982Y-85940684D01*
X64650774Y-85953147D01*
X64641217Y-85974072D01*
X64636008Y-85996475D01*
X64626979Y-86005248D01*
X64621749Y-86016703D01*
X64602396Y-86029139D01*
X64585902Y-86045170D01*
X64572156Y-86048573D01*
X64562971Y-86054477D01*
X64528036Y-86059500D01*
X64315783Y-86059500D01*
X64248744Y-86039815D01*
X64228101Y-86023181D01*
X64227139Y-86022219D01*
X64227139Y-86022218D01*
X64087782Y-85882861D01*
X64087781Y-85882860D01*
X64087780Y-85882859D01*
X63923920Y-85773371D01*
X63923911Y-85773366D01*
X63841078Y-85739056D01*
X63795165Y-85720038D01*
X63741836Y-85697949D01*
X63741832Y-85697948D01*
X63741828Y-85697946D01*
X63645188Y-85678724D01*
X63548544Y-85659500D01*
X63548541Y-85659500D01*
X62970440Y-85659500D01*
X62914146Y-85645985D01*
X62867452Y-85622193D01*
X62867446Y-85622190D01*
X62867445Y-85622190D01*
X62867442Y-85622189D01*
X62702699Y-85568660D01*
X62674047Y-85564122D01*
X62610913Y-85534191D01*
X62605767Y-85529330D01*
X61816819Y-84740382D01*
X61783334Y-84679059D01*
X61780500Y-84652701D01*
X61780500Y-80501308D01*
X61780499Y-80501307D01*
X61752748Y-80361789D01*
X61745895Y-80327334D01*
X61679390Y-80166780D01*
X61678532Y-80164446D01*
X61678515Y-80164205D01*
X61677137Y-80162143D01*
X61579464Y-80015965D01*
X61454035Y-79890536D01*
X61401356Y-79837857D01*
X81699500Y-79837857D01*
X81699500Y-80162143D01*
X81699703Y-80164205D01*
X81731284Y-80484857D01*
X81731287Y-80484874D01*
X81794545Y-80802902D01*
X81794548Y-80802913D01*
X81888686Y-81113247D01*
X82012786Y-81412849D01*
X82012788Y-81412854D01*
X82165646Y-81698830D01*
X82165657Y-81698848D01*
X82345811Y-81968467D01*
X82345821Y-81968481D01*
X82551546Y-82219158D01*
X82780841Y-82448453D01*
X82780846Y-82448457D01*
X82780847Y-82448458D01*
X83031524Y-82654183D01*
X83301158Y-82834347D01*
X83301167Y-82834352D01*
X83301169Y-82834353D01*
X83587145Y-82987211D01*
X83587147Y-82987211D01*
X83587153Y-82987215D01*
X83886754Y-83111314D01*
X84197077Y-83205449D01*
X84197083Y-83205450D01*
X84197086Y-83205451D01*
X84197097Y-83205454D01*
X84396528Y-83245122D01*
X84515132Y-83268714D01*
X84837857Y-83300500D01*
X84837860Y-83300500D01*
X85162140Y-83300500D01*
X85162143Y-83300500D01*
X85484868Y-83268714D01*
X85642295Y-83237399D01*
X85802902Y-83205454D01*
X85802913Y-83205451D01*
X85802913Y-83205450D01*
X85802923Y-83205449D01*
X86113246Y-83111314D01*
X86412847Y-82987215D01*
X86698842Y-82834347D01*
X86968476Y-82654183D01*
X87219153Y-82448458D01*
X87448458Y-82219153D01*
X87654183Y-81968476D01*
X87834347Y-81698842D01*
X87987215Y-81412847D01*
X88111314Y-81113246D01*
X88205449Y-80802923D01*
X88205451Y-80802913D01*
X88205454Y-80802902D01*
X88237399Y-80642295D01*
X88268714Y-80484868D01*
X88300500Y-80162143D01*
X88300500Y-79837857D01*
X96699500Y-79837857D01*
X96699500Y-80162143D01*
X96699703Y-80164205D01*
X96731284Y-80484857D01*
X96731287Y-80484874D01*
X96794545Y-80802902D01*
X96794548Y-80802913D01*
X96888686Y-81113247D01*
X97012786Y-81412849D01*
X97012788Y-81412854D01*
X97165646Y-81698830D01*
X97165657Y-81698848D01*
X97345811Y-81968467D01*
X97345821Y-81968481D01*
X97551546Y-82219158D01*
X97780841Y-82448453D01*
X97780846Y-82448457D01*
X97780847Y-82448458D01*
X98031524Y-82654183D01*
X98301158Y-82834347D01*
X98301167Y-82834352D01*
X98301169Y-82834353D01*
X98587145Y-82987211D01*
X98587147Y-82987211D01*
X98587153Y-82987215D01*
X98886754Y-83111314D01*
X99197077Y-83205449D01*
X99197083Y-83205450D01*
X99197086Y-83205451D01*
X99197097Y-83205454D01*
X99396528Y-83245122D01*
X99515132Y-83268714D01*
X99837857Y-83300500D01*
X99837860Y-83300500D01*
X100162140Y-83300500D01*
X100162143Y-83300500D01*
X100484868Y-83268714D01*
X100642295Y-83237399D01*
X100802902Y-83205454D01*
X100802913Y-83205451D01*
X100802913Y-83205450D01*
X100802923Y-83205449D01*
X101113246Y-83111314D01*
X101412847Y-82987215D01*
X101698842Y-82834347D01*
X101968476Y-82654183D01*
X102219153Y-82448458D01*
X102448458Y-82219153D01*
X102654183Y-81968476D01*
X102834347Y-81698842D01*
X102987215Y-81412847D01*
X103111314Y-81113246D01*
X103205449Y-80802923D01*
X103205451Y-80802913D01*
X103205454Y-80802902D01*
X103237399Y-80642295D01*
X103268714Y-80484868D01*
X103300500Y-80162143D01*
X103300500Y-79837857D01*
X103268714Y-79515132D01*
X103245122Y-79396528D01*
X103205454Y-79197097D01*
X103205451Y-79197086D01*
X103205450Y-79197083D01*
X103205449Y-79197077D01*
X103111314Y-78886754D01*
X102987215Y-78587153D01*
X102834347Y-78301158D01*
X102654183Y-78031524D01*
X102448458Y-77780847D01*
X102448457Y-77780846D01*
X102448453Y-77780841D01*
X102219158Y-77551546D01*
X101968481Y-77345821D01*
X101968480Y-77345820D01*
X101968476Y-77345817D01*
X101698842Y-77165653D01*
X101698837Y-77165650D01*
X101698830Y-77165646D01*
X101412854Y-77012788D01*
X101412849Y-77012786D01*
X101113247Y-76888686D01*
X100802913Y-76794548D01*
X100802902Y-76794545D01*
X100484874Y-76731287D01*
X100484857Y-76731284D01*
X100240812Y-76707248D01*
X100162143Y-76699500D01*
X99837857Y-76699500D01*
X99765099Y-76706666D01*
X99515142Y-76731284D01*
X99515125Y-76731287D01*
X99197097Y-76794545D01*
X99197086Y-76794548D01*
X98886752Y-76888686D01*
X98587150Y-77012786D01*
X98587145Y-77012788D01*
X98301169Y-77165646D01*
X98301151Y-77165657D01*
X98031532Y-77345811D01*
X98031518Y-77345821D01*
X97780841Y-77551546D01*
X97551546Y-77780841D01*
X97345821Y-78031518D01*
X97345811Y-78031532D01*
X97165657Y-78301151D01*
X97165646Y-78301169D01*
X97012788Y-78587145D01*
X97012786Y-78587150D01*
X96888686Y-78886752D01*
X96794548Y-79197086D01*
X96794545Y-79197097D01*
X96731287Y-79515125D01*
X96731284Y-79515142D01*
X96706666Y-79765099D01*
X96699500Y-79837857D01*
X88300500Y-79837857D01*
X88268714Y-79515132D01*
X88245122Y-79396528D01*
X88205454Y-79197097D01*
X88205451Y-79197086D01*
X88205450Y-79197083D01*
X88205449Y-79197077D01*
X88111314Y-78886754D01*
X87987215Y-78587153D01*
X87834347Y-78301158D01*
X87654183Y-78031524D01*
X87448458Y-77780847D01*
X87448457Y-77780846D01*
X87448453Y-77780841D01*
X87219158Y-77551546D01*
X86968481Y-77345821D01*
X86968480Y-77345820D01*
X86968476Y-77345817D01*
X86698842Y-77165653D01*
X86698837Y-77165650D01*
X86698830Y-77165646D01*
X86412854Y-77012788D01*
X86412849Y-77012786D01*
X86113247Y-76888686D01*
X85802913Y-76794548D01*
X85802902Y-76794545D01*
X85484874Y-76731287D01*
X85484857Y-76731284D01*
X85240812Y-76707248D01*
X85162143Y-76699500D01*
X84837857Y-76699500D01*
X84765099Y-76706666D01*
X84515142Y-76731284D01*
X84515125Y-76731287D01*
X84197097Y-76794545D01*
X84197086Y-76794548D01*
X83886752Y-76888686D01*
X83587150Y-77012786D01*
X83587145Y-77012788D01*
X83301169Y-77165646D01*
X83301151Y-77165657D01*
X83031532Y-77345811D01*
X83031518Y-77345821D01*
X82780841Y-77551546D01*
X82551546Y-77780841D01*
X82345821Y-78031518D01*
X82345811Y-78031532D01*
X82165657Y-78301151D01*
X82165646Y-78301169D01*
X82012788Y-78587145D01*
X82012786Y-78587150D01*
X81888686Y-78886752D01*
X81794548Y-79197086D01*
X81794545Y-79197097D01*
X81731287Y-79515125D01*
X81731284Y-79515142D01*
X81706666Y-79765099D01*
X81699500Y-79837857D01*
X61401356Y-79837857D01*
X57097178Y-75533678D01*
X57063693Y-75472355D01*
X57068677Y-75402663D01*
X57110549Y-75346730D01*
X57119763Y-75340458D01*
X57238342Y-75267317D01*
X57238344Y-75267316D01*
X57362315Y-75143345D01*
X57454356Y-74994124D01*
X57454359Y-74994117D01*
X57457951Y-74983278D01*
X57497723Y-74925833D01*
X57562238Y-74899009D01*
X57631014Y-74911323D01*
X57675977Y-74949399D01*
X57679890Y-74954785D01*
X57679894Y-74954790D01*
X57830213Y-75105109D01*
X58002179Y-75230048D01*
X58002181Y-75230049D01*
X58002184Y-75230051D01*
X58191588Y-75326557D01*
X58393757Y-75392246D01*
X58603713Y-75425500D01*
X58603714Y-75425500D01*
X58816286Y-75425500D01*
X58816287Y-75425500D01*
X59026243Y-75392246D01*
X59228412Y-75326557D01*
X59417816Y-75230051D01*
X59481056Y-75184105D01*
X59589786Y-75105109D01*
X59589788Y-75105106D01*
X59589792Y-75105104D01*
X59740104Y-74954792D01*
X59740106Y-74954788D01*
X59740109Y-74954786D01*
X59865048Y-74782820D01*
X59865047Y-74782820D01*
X59865051Y-74782816D01*
X59869514Y-74774054D01*
X59917488Y-74723259D01*
X59985308Y-74706463D01*
X60051444Y-74728999D01*
X60090484Y-74774054D01*
X60090702Y-74774480D01*
X60094951Y-74782820D01*
X60219890Y-74954786D01*
X60370213Y-75105109D01*
X60542179Y-75230048D01*
X60542181Y-75230049D01*
X60542184Y-75230051D01*
X60731588Y-75326557D01*
X60933757Y-75392246D01*
X61143713Y-75425500D01*
X61143714Y-75425500D01*
X61356286Y-75425500D01*
X61356287Y-75425500D01*
X61566243Y-75392246D01*
X61768412Y-75326557D01*
X61957816Y-75230051D01*
X62021056Y-75184105D01*
X62129786Y-75105109D01*
X62129788Y-75105106D01*
X62129792Y-75105104D01*
X62280104Y-74954792D01*
X62280106Y-74954788D01*
X62280109Y-74954786D01*
X62405048Y-74782820D01*
X62405047Y-74782820D01*
X62405051Y-74782816D01*
X62501557Y-74593412D01*
X62567246Y-74391243D01*
X62600500Y-74181287D01*
X62600500Y-73268713D01*
X62567246Y-73058757D01*
X62501557Y-72856588D01*
X62405051Y-72667184D01*
X62405049Y-72667181D01*
X62405048Y-72667179D01*
X62280109Y-72495213D01*
X62196819Y-72411923D01*
X62163334Y-72350600D01*
X62160500Y-72324242D01*
X62160500Y-72081456D01*
X62132984Y-71943132D01*
X62132984Y-71943127D01*
X62126460Y-71910330D01*
X62122051Y-71888164D01*
X62104043Y-71844688D01*
X62099961Y-71834833D01*
X62046634Y-71706090D01*
X62046628Y-71706079D01*
X61937139Y-71542218D01*
X61937136Y-71542214D01*
X61794686Y-71399764D01*
X61794655Y-71399735D01*
X60751479Y-70356559D01*
X60751459Y-70356537D01*
X60607785Y-70212863D01*
X60607781Y-70212860D01*
X60443920Y-70103371D01*
X60443911Y-70103366D01*
X60371315Y-70073296D01*
X60315165Y-70050038D01*
X60261836Y-70027949D01*
X60261832Y-70027948D01*
X60261828Y-70027946D01*
X60165188Y-70008724D01*
X60068544Y-69989500D01*
X60068541Y-69989500D01*
X46121459Y-69989500D01*
X46121455Y-69989500D01*
X46024812Y-70008724D01*
X45928167Y-70027947D01*
X45928161Y-70027949D01*
X45874834Y-70050037D01*
X45874834Y-70050038D01*
X45829315Y-70068892D01*
X45746089Y-70103366D01*
X45746079Y-70103371D01*
X45582219Y-70212859D01*
X45512540Y-70282538D01*
X45442861Y-70352218D01*
X45442858Y-70352221D01*
X44559427Y-71235652D01*
X44559424Y-71235655D01*
X44489744Y-71305334D01*
X44420065Y-71375013D01*
X44310577Y-71538874D01*
X44310570Y-71538887D01*
X44273750Y-71627782D01*
X44241316Y-71706086D01*
X44236429Y-71717882D01*
X44235154Y-71720961D01*
X44235153Y-71720964D01*
X44196706Y-71914248D01*
X44196706Y-72234487D01*
X44177021Y-72301526D01*
X44167712Y-72314052D01*
X44042155Y-72486869D01*
X44037690Y-72495633D01*
X43989715Y-72546429D01*
X43921894Y-72563223D01*
X43855759Y-72540685D01*
X43816722Y-72495633D01*
X43812256Y-72486869D01*
X43687315Y-72314900D01*
X43536992Y-72164577D01*
X43365026Y-72039638D01*
X43175620Y-71943131D01*
X43175619Y-71943130D01*
X43175618Y-71943130D01*
X42973449Y-71877441D01*
X42973447Y-71877440D01*
X42973446Y-71877440D01*
X42812163Y-71851895D01*
X42763493Y-71844187D01*
X42550919Y-71844187D01*
X42502248Y-71851895D01*
X42340966Y-71877440D01*
X42138791Y-71943131D01*
X41949385Y-72039638D01*
X41777419Y-72164577D01*
X41627098Y-72314898D01*
X41623180Y-72320292D01*
X41567849Y-72362957D01*
X41498235Y-72368935D01*
X41436441Y-72336328D01*
X41405157Y-72286410D01*
X41401563Y-72275565D01*
X41401562Y-72275562D01*
X41309521Y-72126341D01*
X41185551Y-72002371D01*
X41036330Y-71910330D01*
X41036325Y-71910328D01*
X40869903Y-71855181D01*
X40869896Y-71855180D01*
X40767192Y-71844687D01*
X40367206Y-71844687D01*
X40367206Y-73111675D01*
X40310199Y-73078762D01*
X40183032Y-73044687D01*
X40051380Y-73044687D01*
X39924213Y-73078762D01*
X39867206Y-73111675D01*
X39867206Y-71844687D01*
X39467234Y-71844687D01*
X39467218Y-71844688D01*
X39364508Y-71855181D01*
X39198086Y-71910328D01*
X39198081Y-71910330D01*
X39048860Y-72002371D01*
X38924890Y-72126341D01*
X38832849Y-72275562D01*
X38832847Y-72275568D01*
X38829252Y-72286416D01*
X38789476Y-72343858D01*
X38724959Y-72370678D01*
X38656183Y-72358359D01*
X38611226Y-72320285D01*
X38607311Y-72314896D01*
X38456992Y-72164577D01*
X38285026Y-72039638D01*
X38095620Y-71943131D01*
X38095619Y-71943130D01*
X38095618Y-71943130D01*
X37893449Y-71877441D01*
X37893447Y-71877440D01*
X37893446Y-71877440D01*
X37732163Y-71851895D01*
X37683493Y-71844187D01*
X37470919Y-71844187D01*
X37422248Y-71851895D01*
X37260966Y-71877440D01*
X37058791Y-71943131D01*
X36869385Y-72039638D01*
X36697385Y-72164603D01*
X36631578Y-72188083D01*
X36563525Y-72172257D01*
X36514830Y-72122151D01*
X36500500Y-72064285D01*
X36500500Y-67624500D01*
X36520185Y-67557461D01*
X36572989Y-67511706D01*
X36624500Y-67500500D01*
X104375500Y-67500500D01*
X104442539Y-67520185D01*
G37*
%TD.AperFunction*%
%TD*%
M02*
